<svg width="62" height="31" fill="none" xmlns="http://www.w3.org/2000/svg"><path d="M.5 1.464c0-.506.401-.829.782-.829.308 0 .668.253.78.869-.007.27-.096.458-.211.577-.12.124-.304.213-.57.213-.444 0-.781-.39-.781-.83ZM11.137 1.464c0-.506.402-.829.782-.829.308 0 .668.253.78.867a.807.807 0 0 1-.78.792c-.445 0-.782-.39-.782-.83ZM21.646 1.464c0-.506.402-.829.782-.829.265 0 .45.09.57.213.12.125.212.326.212.616 0 .507-.402.83-.782.83-.445 0-.782-.39-.782-.83ZM32.284 1.464c0-.506.401-.829.781-.829.266 0 .45.09.57.213.12.125.212.326.212.616 0 .507-.402.83-.782.83-.444 0-.781-.39-.781-.83ZM42.92 1.464c0-.506.402-.829.782-.829.266 0 .45.09.57.213.12.125.212.326.212.616 0 .507-.401.83-.782.83-.444 0-.781-.39-.781-.83ZM53.558 1.464c0-.506.402-.829.782-.829.265 0 .45.09.569.213.12.125.212.326.212.616 0 .507-.401.83-.781.83-.445 0-.782-.39-.782-.83ZM.5 10.761c0-.506.401-.829.782-.829.138 0 .3.072.461.25.15.167.266.395.32.627-.01.265-.098.45-.212.569-.12.123-.304.213-.57.213-.444 0-.781-.39-.781-.83ZM11.137 10.761c0-.506.402-.829.782-.829.138 0 .3.072.461.25.15.166.266.394.32.626a.806.806 0 0 1-.781.783c-.445 0-.782-.39-.782-.83ZM21.646 10.761c0-.506.402-.829.782-.829.444 0 .782.39.782.83 0 .505-.402.829-.782.829-.445 0-.782-.39-.782-.83ZM32.284 10.761c0-.506.401-.829.781-.829.445 0 .782.39.782.83 0 .505-.402.829-.782.829-.444 0-.781-.39-.781-.83ZM42.92 10.761c0-.506.402-.829.782-.829.445 0 .782.39.782.83 0 .505-.401.829-.782.829-.444 0-.781-.39-.781-.83ZM53.558 10.761c0-.506.402-.829.782-.829.444 0 .781.39.781.83 0 .505-.401.829-.781.829-.445 0-.782-.39-.782-.83ZM2.063 20.194c0 .475-.367.829-.781.829-.415 0-.782-.354-.782-.83 0-.475.367-.829.782-.829.414 0 .781.354.781.83ZM12.7 20.194c0 .475-.366.829-.781.829-.415 0-.782-.354-.782-.83 0-.475.367-.829.782-.829.415 0 .781.354.781.83ZM21.646 20.194c0-.507.402-.83.782-.83.265 0 .45.09.57.213.12.125.212.326.212.616 0 .507-.402.83-.782.83-.265 0-.45-.09-.57-.213-.12-.125-.212-.326-.212-.616ZM32.284 20.194c0-.507.401-.83.781-.83.266 0 .45.09.57.213.12.125.212.326.212.616 0 .507-.402.83-.782.83-.265 0-.45-.09-.569-.213-.12-.125-.212-.326-.212-.616ZM42.92 20.194c0-.507.402-.83.782-.83.266 0 .45.09.57.213.12.125.212.326.212.616 0 .507-.401.83-.782.83-.265 0-.45-.09-.569-.213-.12-.125-.212-.326-.212-.616ZM53.558 20.194c0-.507.402-.83.782-.83.265 0 .45.09.569.213.12.125.212.326.212.616 0 .507-.401.83-.781.83-.266 0-.45-.09-.57-.213-.12-.125-.212-.326-.212-.616ZM2.063 29.493c0 .475-.367.829-.781.829-.415 0-.782-.354-.782-.83 0-.475.367-.828.782-.828.414 0 .781.353.781.829ZM12.7 29.493c0 .475-.366.829-.781.829-.415 0-.782-.354-.782-.83 0-.475.367-.828.782-.828.415 0 .781.353.781.829ZM21.646 29.626c0-.506.402-.83.782-.83.265 0 .45.09.57.213.12.125.212.326.212.617 0 .506-.402.829-.782.829-.445 0-.782-.39-.782-.83ZM32.284 29.626c0-.506.401-.83.781-.83.266 0 .45.09.57.213.12.125.212.326.212.617 0 .506-.402.829-.782.829-.444 0-.781-.39-.781-.83ZM42.92 29.626c0-.506.402-.83.782-.83.266 0 .45.09.57.213.12.125.212.326.212.617 0 .506-.401.829-.782.829-.444 0-.781-.39-.781-.83ZM53.558 29.626c0-.506.402-.83.782-.83.265 0 .45.09.569.213.12.125.212.326.212.617 0 .506-.401.829-.781.829-.445 0-.782-.39-.782-.83Z" fill="#fff" stroke="#fff"/></svg>