<svg aria-hidden="true" style="position:absolute;width:0;height:0;overflow:hidden" xmlns="http://www.w3.org/2000/svg"><defs><symbol id="maple" viewBox="0 0 29 32"><path d="M27.822 10.479c.368-.425.678-.736.678-.736s-.18.065-.49.065c-2.027.188-4.169.065-5.215-2.019-.065-.065 0-.065-.065-.188-.311.425-.433.67-.924 1.226-.425.49-.915.981-1.471 1.291-.556.368-1.291.49-1.904.123-.67-.425-.801-1.283-.736-1.962.123-.736.368-1.414.678-2.084.368-.801.548-.989.858-1.414-.49 0-1.038.065-1.594-.245C16.411 3.8 15.618 2.264 15.062.98c-.245-.548-.368-.981-.368-.981s-.188.548-.351.973c-.613 1.283-1.414 2.82-2.64 3.556-.49.311-1.038.245-1.594.245.302.433.49.621.858 1.414.311.67.613 1.349.678 2.084.123.67-.065 1.528-.678 1.962-.613.368-1.349.245-1.904-.123-.556-.311-1.046-.801-1.537-1.291-.49-.556-.613-.793-.924-1.226 0 .123 0 .123-.065.188-.311.613-.678 1.291-1.414 1.659-1.038.556-2.509.49-3.801.368-.245 0-.245 0-.49-.065.311.311.368.311.678.736 1.038 1.169 2.084 2.575 2.33 4.046.123.679-.188 1.349-.433 1.905-.057.123-.057.123-.123.188.368.057.433.057.924.245a4.46 4.46 0 0 1 1.226.548c.425.245.793.67.858 1.226.065.678-.302 1.291-.736 1.716-.433.499-.981.858-1.537 1.169-.302.18-.302.123-.613.245 0 .057 0 .057.065.057.924.245 1.962.613 2.64 1.349.49.49.613 1.103.801 1.659.368-.368.49-.556 1.169-1.169 1.226-.981 2.632-2.084 4.046-2.329.67-.057 1.226.245 1.594.49.425.18.736.368.981.368.188 0 .491-.18.924-.368.425-.245.915-.556 1.594-.49 1.471.245 2.877 1.349 4.046 2.329.67.613.858.801 1.226 1.169.123-.556.302-1.169.736-1.659.67-.736 1.774-1.103 2.697-1.349v-.057c-.245-.123-.302-.057-.613-.245-.556-.311-1.103-.678-1.537-1.169-.425-.425-.801-1.038-.736-1.716.057-.548.491-.981.858-1.226.368-.237.858-.425 1.291-.548.425-.18.548-.18.858-.245-.057-.065-.057-.065-.123-.188-.245-.556-.499-1.226-.433-1.905.245-1.471 1.349-2.877 2.33-4.046z"/><path d="M14.05 23.409 13.437 32h2.452l-.613-8.591H14.05z"/></symbol><symbol id="arrow-down" viewBox="0 0 32 32"><path d="M15.999 21.333a1.329 1.329 0 0 1-.853-.307l-8-6.667a1.334 1.334 0 1 1 1.707-2.053L16 18.279l7.147-5.76a1.323 1.323 0 0 1 .982-.29 1.342 1.342 0 0 1 .898.491 1.337 1.337 0 0 1 .332 1.014 1.339 1.339 0 0 1-.519.932l-8 6.44a1.34 1.34 0 0 1-.84.227z"/></symbol><symbol id="arrow-right" viewBox="0 0 32 32"><path d="m27.609 15.057-8-8-1.886 1.886 5.724 5.724H6.666a1.333 1.333 0 0 0 0 2.666h16.781l-5.724 5.724 1.886 1.886L28.552 16l-.943-.943z"/></symbol><symbol id="arrow-right-greater" viewBox="0 0 32 32"><path d="M.444 16a1.114 1.114 0 0 1 1.111-1.111h26.207l-6.993-6.991a1.113 1.113 0 1 1 1.574-1.574l8.889 8.889a1.118 1.118 0 0 1 .327.787 1.113 1.113 0 0 1-.327.787l-8.889 8.889a1.113 1.113 0 1 1-1.574-1.574l6.993-6.991H1.555A1.114 1.114 0 0 1 .444 16z"/></symbol><symbol id="bookmarks" viewBox="0 0 32 32"><path d="M20 7H8a1.997 1.997 0 0 0-2 2v19a.995.995 0 0 0 1.072.997c.183-.014.359-.077.509-.184l6.418-4.585 6.42 4.585a1.008 1.008 0 0 0 1.039.076A1.002 1.002 0 0 0 22 28V9a1.997 1.997 0 0 0-2-2zm0 19.057-5.42-3.871a1.002 1.002 0 0 0-1.162 0L8 26.056V8.999h12v17.057zM26 5v19a.997.997 0 0 1-1 1 .997.997 0 0 1-1-1V5H11a.997.997 0 0 1-1-1 .997.997 0 0 1 1-1h13a1.997 1.997 0 0 1 2 2z"/></symbol><symbol id="checked" viewBox="0 0 32 32"><path d="M11.429 27.429 0 16.092l3.634-3.52 7.794 7.657 16.937-16.8 3.634 3.611-20.571 20.389z"/></symbol><symbol id="circle-list" viewBox="0 0 32 32"><path d="M30 16c0 7.732-6.268 14-14 14S2 23.732 2 16 8.268 2 16 2s14 6.268 14 14z"/></symbol><symbol id="clouds" viewBox="0 0 32 32"><path d="M32 14.122a5.22 5.22 0 0 0-4.368-5.143 7.549 7.549 0 0 0-7.355-5.848 7.57 7.57 0 0 0-7.084 4.939 9.78 9.78 0 0 0-7.395 7.556C2.532 16.045 0 18.842 0 22.22a6.655 6.655 0 0 0 6.648 6.648h17.458a6.655 6.655 0 0 0 6.648-6.648c0-1.376-.42-2.655-1.139-3.717a5.183 5.183 0 0 0 2.384-4.382zM20.277 5.11a5.566 5.566 0 0 1 5.529 4.907l.103.874h.88a3.236 3.236 0 0 1 3.232 3.232 3.214 3.214 0 0 1-1.785 2.892 6.624 6.624 0 0 0-3.279-1.388 9.778 9.778 0 0 0-9.461-7.801 5.586 5.586 0 0 1 4.781-2.715zm3.83 21.78H6.649c-2.574 0-4.669-2.094-4.669-4.669s2.095-4.669 4.669-4.669h.88l.103-.874c.463-3.919 3.793-6.874 7.746-6.874s7.283 2.955 7.746 6.874l.103.874h.88c2.575 0 4.669 2.094 4.669 4.669s-2.094 4.669-4.669 4.669z"/></symbol><symbol id="copyright" viewBox="0 0 32 32"><path d="m17.989 14.011 1.326-1.326c-1.828-1.828-4.801-1.828-6.629 0s-1.828 4.801 0 6.629c.914.914 2.114 1.371 3.314 1.371s2.401-.457 3.314-1.371l-1.326-1.326c-1.097 1.096-2.881 1.096-3.978 0s-1.097-2.881 0-3.977a2.817 2.817 0 0 1 3.978 0z"/><path d="M29.188 13.188a2.817 2.817 0 0 0-2.651 1.875h-2.151a8.391 8.391 0 0 0-1.796-4.326l1.479-1.479a2.814 2.814 0 1 0-.775-4.528 2.818 2.818 0 0 0-.549 3.201l-1.48 1.48a8.4 8.4 0 0 0-4.326-1.796V5.464a2.817 2.817 0 0 0 1.875-2.651C18.814 1.262 17.552 0 16.002 0S13.19 1.262 13.19 2.813c0 1.222.784 2.264 1.875 2.651v2.151a8.391 8.391 0 0 0-4.326 1.796l-1.48-1.479a2.818 2.818 0 0 0-.549-3.201c-1.097-1.097-2.881-1.096-3.978 0s-1.097 2.881 0 3.978a2.816 2.816 0 0 0 3.2.549l1.48 1.48a8.4 8.4 0 0 0-1.796 4.326H5.465a2.817 2.817 0 0 0-2.651-1.875c-1.551 0-2.813 1.262-2.813 2.812s1.262 2.812 2.813 2.812a2.817 2.817 0 0 0 2.651-1.875h2.151a8.391 8.391 0 0 0 1.796 4.326l-1.48 1.48a2.816 2.816 0 0 0-3.2.549c-1.097 1.097-1.097 2.881 0 3.977s2.881 1.096 3.978 0a2.818 2.818 0 0 0 .549-3.201l1.48-1.479a8.4 8.4 0 0 0 4.326 1.796v2.151a2.817 2.817 0 0 0-1.875 2.651c0 1.551 1.262 2.812 2.812 2.812s2.812-1.262 2.812-2.812a2.817 2.817 0 0 0-1.875-2.651v-2.151a8.391 8.391 0 0 0 4.326-1.796l1.48 1.479a2.81 2.81 0 0 0 4.526 3.201 2.814 2.814 0 0 0-3.202-4.527l-1.479-1.479a8.4 8.4 0 0 0 1.796-4.326h2.151a2.817 2.817 0 0 0 2.651 1.875c1.551 0 2.812-1.262 2.812-2.812s-1.262-2.812-2.812-2.812zm-4.57-7.132a.938.938 0 1 1 1.326 1.327.938.938 0 0 1-1.326-1.327zM7.382 7.382a.939.939 0 0 1-1.326-1.326.938.938 0 0 1 1.326 1.326zm-4.569 9.556c-.517 0-.938-.421-.938-.938s.421-.938.938-.938c.517 0 .938.421.938.938s-.421.938-.938.938zm4.569 9.006a.938.938 0 1 1-1.326-1.327.938.938 0 0 1 1.326 1.327zm17.236-1.326a.938.938 0 1 1 1.326 1.327.938.938 0 0 1-1.326-1.327zM16 1.875c.517 0 .938.421.938.938s-.421.938-.938.938c-.517 0-.938-.421-.938-.938s.421-.938.938-.938zm0 28.25c-.517 0-.938-.421-.938-.938s.421-.938.938-.938.938.421.938.938a.94.94 0 0 1-.938.938zm0-7.562c-3.619 0-6.563-2.944-6.563-6.563S12.381 9.437 16 9.437c3.619 0 6.563 2.944 6.563 6.563S19.619 22.563 16 22.563zm13.188-5.625c-.517 0-.938-.421-.938-.938s.421-.938.938-.938c.517 0 .938.421.938.938s-.421.938-.938.938z"/></symbol><symbol id="copyright-alt" viewBox="0 0 32 32"><path d="m15.904 31.974.154.026.154-.026c6.939-1.157 12.029-7.228 12.029-14.262V3.747h-6.288L16.057 0l-5.895 3.747H3.874v13.965c0 7.034 5.09 13.106 12.029 14.262zm1.091-29.158 4.413 2.805h4.958v12.091c0 5.805-3.879 10.761-9.372 12.181v-5.518c4.211-.468 7.497-4.048 7.497-8.382s-3.286-7.914-7.497-8.382V2.817zm5.623 13.177c0 3.617-2.943 6.56-6.56 6.56s-6.56-2.943-6.56-6.56c0-3.617 2.943-6.56 6.56-6.56s6.56 2.943 6.56 6.56zM5.749 5.621h4.958l4.413-2.805V7.61c-4.211.468-7.497 4.048-7.497 8.382s3.286 7.915 7.497 8.382v5.518c-5.492-1.42-9.372-6.376-9.372-12.181V5.62z"/><path d="M12.745 19.306c.913.913 2.113 1.37 3.313 1.37s2.4-.457 3.314-1.37l-1.326-1.326c-1.096 1.096-2.88 1.096-3.976 0s-1.096-2.88 0-3.976a2.815 2.815 0 0 1 3.976 0l1.325-1.325c-1.827-1.827-4.8-1.827-6.627 0s-1.827 4.8 0 6.627z"/></symbol><symbol id="cross" viewBox="0 0 32 32"><path d="M25.12 8.64c.16-.16.16-.32.32-.32 0-.16.16-.32.16-.48s0-.32-.16-.48-.16-.32-.32-.32c-.16-.16-.32-.16-.32-.32-.16 0-.32-.16-.48-.16s-.32 0-.48.16c-.16 0-.32.16-.32.32L16 14.24 8.64 6.88c-.32-.32-.64-.32-.96-.32s-.64.16-.8.32c-.32.16-.32.48-.32.8s.16.64.32.8L14.24 16l-7.36 7.36c-.16.16-.16.32-.32.32 0 .16-.16.32-.16.48s0 .32.16.48c0 .16.16.32.32.32.16.16.48.32.8.32.16 0 .32 0 .48-.16s.32-.16.32-.32l7.36-7.36 7.36 7.36c.16.16.48.32.8.32s.64-.16.8-.32c.16-.16.32-.48.32-.8s-.16-.64-.32-.8L17.76 16l7.36-7.36z"/></symbol><symbol id="envelope" viewBox="0 0 32 32"><path d="M29.333 4.889H2.666A2.22 2.22 0 0 0 .444 7.111v17.778a2.22 2.22 0 0 0 2.222 2.222h26.667a2.22 2.22 0 0 0 2.222-2.222V7.111a2.22 2.22 0 0 0-2.222-2.222zm-2.444 2.222L16 14.644 5.111 7.111h21.778zM2.667 24.889V8.122l12.7 8.789a1.111 1.111 0 0 0 1.266 0l12.7-8.789v16.767H2.666z"/></symbol><symbol id="facebook" viewBox="0 0 32 32"><path d="M17.806 27.632V17.035h3.575l.531-4.149h-4.106v-2.643c0-1.197.334-2.017 2.052-2.017h2.177V4.527a28.794 28.794 0 0 0-3.19-.164c-3.16 0-5.329 1.929-5.329 5.47v3.045H9.964v4.149h3.559v10.605h4.282z"/></symbol><symbol id="global" viewBox="0 0 32 32"><path d="M27.314 4.686C24.292 1.664 20.274 0 16 0S7.708 1.664 4.686 4.686 0 11.726 0 16s1.664 8.292 4.686 11.314S11.726 32 16 32s8.292-1.664 11.314-4.686S32 20.274 32 16s-1.664-8.292-4.686-11.314zm-4.962 7.162c1.457.262 2.798.615 3.971 1.053 2.381.889 3.802 2.048 3.802 3.099s-1.421 2.21-3.802 3.099c-1.172.438-2.514.791-3.971 1.053.139-1.337.211-2.73.211-4.152s-.072-2.815-.211-4.152zm3.636-5.836a14.036 14.036 0 0 1 3.7 6.481c-.738-.498-1.645-.951-2.709-1.349-1.431-.534-3.086-.952-4.883-1.24-.289-1.797-.706-3.452-1.24-4.883-.397-1.065-.851-1.971-1.349-2.709a14.036 14.036 0 0 1 6.481 3.7zM20.688 16c0 1.53-.087 3.021-.253 4.435-1.414.166-2.905.253-4.435.253s-3.021-.087-4.435-.253c-.166-1.414-.253-2.905-.253-4.435s.087-3.021.253-4.435c1.414-.166 2.905-.253 4.435-.253s3.021.087 4.435.253c.166 1.414.253 2.905.253 4.435zM16 1.875c1.052 0 2.21 1.421 3.099 3.802.438 1.172.791 2.514 1.053 3.971-1.337-.139-2.731-.21-4.152-.21s-2.815.072-4.152.21c.261-1.457.615-2.798 1.053-3.971.889-2.381 2.048-3.802 3.099-3.802zM6.012 6.012a14.036 14.036 0 0 1 6.481-3.7c-.498.739-.951 1.645-1.349 2.709-.534 1.431-.952 3.086-1.24 4.883-1.797.288-3.452.706-4.883 1.24-1.065.398-1.971.851-2.709 1.349a14.036 14.036 0 0 1 3.7-6.481zm-.335 6.889c1.172-.438 2.514-.791 3.971-1.053-.139 1.337-.21 2.73-.21 4.152s.072 2.815.21 4.152c-1.457-.261-2.798-.615-3.971-1.053C3.296 18.21 1.875 17.051 1.875 16s1.421-2.21 3.802-3.099zm.335 13.087a14.036 14.036 0 0 1-3.7-6.481c.739.498 1.645.951 2.709 1.349 1.431.534 3.086.952 4.883 1.24.288 1.797.706 3.452 1.24 4.883.398 1.065.851 1.971 1.349 2.709a14.036 14.036 0 0 1-6.481-3.7zM16 30.125c-1.052 0-2.21-1.421-3.099-3.802-.438-1.172-.791-2.514-1.053-3.971 1.337.139 2.73.211 4.152.211s2.815-.072 4.152-.211c-.262 1.457-.615 2.798-1.053 3.971-.889 2.381-2.048 3.802-3.099 3.802zm9.988-4.137a14.036 14.036 0 0 1-6.481 3.7c.498-.738.951-1.645 1.349-2.709.534-1.431.952-3.086 1.24-4.883 1.797-.288 3.452-.706 4.883-1.24 1.065-.398 1.971-.851 2.709-1.349a14.036 14.036 0 0 1-3.7 6.481z"/></symbol><symbol id="greater-than" viewBox="0 0 32 32"><path d="M23.807 16c.001.498-.173.982-.491 1.365l-10.667 12.8a2.134 2.134 0 0 1-3.008.278 2.134 2.134 0 0 1-.278-3.008L18.92 16 9.704 4.565a2.146 2.146 0 0 1-.216-2.368c.135-.247.317-.464.536-.64a2.122 2.122 0 0 1 2.456-.272c.257.143.481.337.659.57l10.304 12.8c.268.395.395.868.363 1.344z"/></symbol><symbol id="heart" viewBox="0 0 32 32"><path d="M16 29.838a.944.944 0 0 1-.469-.125c-.158-.091-3.899-2.263-7.695-5.537-2.25-1.94-4.045-3.865-5.337-5.72C.827 16.056-.013 13.747 0 11.593c.016-2.506.913-4.862 2.527-6.635 1.641-1.803 3.831-2.796 6.167-2.796 2.994 0 5.73 1.677 7.306 4.333 1.575-2.656 4.312-4.333 7.306-4.333 2.207 0 4.312.896 5.929 2.523 1.774 1.785 2.782 4.308 2.766 6.92-.014 2.15-.87 4.455-2.546 6.852-1.296 1.854-3.089 3.777-5.33 5.717-3.782 3.273-7.497 5.446-7.653 5.537a.936.936 0 0 1-.471.127z"/></symbol><symbol id="instagram-alt" viewBox="0 0 32 32"><path d="M27.568 11.222a8.426 8.426 0 0 0-.542-2.865 5.953 5.953 0 0 0-3.404-3.404 8.535 8.535 0 0 0-2.826-.543c-1.244-.056-1.638-.071-4.796-.071s-3.562 0-4.797.071a8.55 8.55 0 0 0-2.825.543 5.953 5.953 0 0 0-3.404 3.404 8.498 8.498 0 0 0-.542 2.825c-.056 1.245-.072 1.639-.072 4.797s0 3.561.072 4.797c.019.967.202 1.921.542 2.828a5.97 5.97 0 0 0 3.406 3.403c.902.353 1.857.55 2.825.582 1.245.056 1.639.072 4.797.072s3.562 0 4.797-.072a8.503 8.503 0 0 0 2.826-.542 5.97 5.97 0 0 0 3.405-3.405 8.53 8.53 0 0 0 .542-2.828c.056-1.244.072-1.638.072-4.797-.002-3.157-.002-3.558-.075-4.795zM15.992 21.95c-3.302 0-5.977-2.675-5.977-5.977a5.976 5.976 0 0 1 10.203-4.226 5.979 5.979 0 0 1-4.226 10.204zm6.216-10.782a1.401 1.401 0 0 1-.986-.408 1.395 1.395 0 0 1 .452-2.273A1.392 1.392 0 0 1 23.6 9.774c0 .771-.623 1.394-1.392 1.394z"/><path d="M15.992 19.855a3.883 3.883 0 1 0 0-7.766 3.883 3.883 0 0 0 0 7.766z"/></symbol><symbol id="lamp" viewBox="0 0 32 32"><path d="M21.916 14.383a8.34 8.34 0 0 0 2.545-6.023c0-4.997-4.354-8.967-9.45-8.362-3.663.435-6.728 3.36-7.293 7.032-.417 2.709.446 5.362 2.368 7.279a7.534 7.534 0 0 1 1.652 2.473h-1.315v1.872h1.872v5.006l3.743 8.277 3.743-8.277v-5.006h1.872v-1.872h-1.335a6.931 6.931 0 0 1 1.597-2.4zm-5.878 13.013-1.357-3.001h2.714l-1.357 3.001zm1.872-4.873h-3.743v-3.868h3.743v3.868zm2.7-9.482a8.858 8.858 0 0 0-2.276 3.742h-1.36v-4.458l1.192-2.385.954.954 1.324-1.323-2.79-2.79-1.615 3.23-1.616-3.23-2.79 2.79 1.323 1.323.954-.954 1.192 2.385v4.458h-1.374a9.385 9.385 0 0 0-2.321-3.799c-1.494-1.49-2.165-3.556-1.84-5.669.434-2.824 2.816-5.12 5.664-5.458 4.056-.482 7.358 2.693 7.358 6.503 0 1.778-.702 3.44-1.978 4.681zM2 7.424h3.743v1.872H2V7.424zM5.224 5.395 2.416 3.523l1.038-1.557 2.808 1.872-1.038 1.557zM5.224 11.325l1.038 1.557-2.808 1.872-1.038-1.558 2.808-1.872zM26.333 7.424h3.743v1.872h-3.743V7.424zM29.659 3.523l-2.808 1.872-1.038-1.558 2.808-1.872 1.038 1.557zM26.853 11.325l2.808 1.872-1.038 1.558-2.808-1.872 1.038-1.557z"/></symbol><symbol id="less-than" viewBox="0 0 32 32"><path d="M9.067 16a2.132 2.132 0 0 1 .491-1.365l10.667-12.8a2.134 2.134 0 0 1 3.008-.278 2.134 2.134 0 0 1 .278 3.008L13.954 16l9.216 11.435a2.146 2.146 0 0 1 .216 2.368 2.133 2.133 0 0 1-.536.64 2.122 2.122 0 0 1-2.456.272 2.15 2.15 0 0 1-.66-.57L9.43 17.345a2.137 2.137 0 0 1-.363-1.344z"/></symbol><symbol id="like" viewBox="0 0 32 32"><path d="M2.813 28.25h1.875V32h12.897l5.083-1.875h.77V32h7.563V15.125h-7.563V17h-2.529l-4.971-3.314v-.87c2.954-2.494 5.625-4.667 5.625-7.821C21.563 2.251 19.599 0 16.888 0c-1.855 0-3.035 1.062-3.738 2.07C12.447 1.061 11.267 0 9.412 0 6.674 0 4.687 1.971 4.687 4.688c0 3.225 3.027 5.814 5.625 8.063v2.374h-7.5v3.75H.937V24.5h1.875v3.75zM25.312 17h3.813v13.125h-3.813V17zm-4.971 1.875h3.096v9.375h-1.105l-5.083 1.875h-3.187v-3.75h-1.875V23.56c.784.59 1.758.94 2.812.94h2.812v-1.875h-2.812a2.815 2.815 0 0 1-2.812-2.813V12.25c0-1.222.784-2.265 1.875-2.652v5.091l6.279 4.186zM6.563 4.688c0-1.682 1.145-2.813 2.85-2.813 2.095 0 2.759 2.413 2.955 2.813h1.566c.172-.352.84-2.813 2.955-2.813 1.596 0 2.8 1.341 2.8 3.12 0 2.078-1.988 3.834-3.75 5.358v-2.79h-.938a4.695 4.695 0 0 0-4.364 2.98c-2.5-2.22-4.074-3.953-4.074-5.855zm5.625 23.562v1.875H6.563V28.25h5.625zm-7.5-1.875V24.5h5.625v1.875H4.688zm0-9.375h5.625v1.875H4.688V17zm-1.875 3.75h7.5v1.875h-7.5V20.75z"/></symbol><symbol id="magnifying" viewBox="0 0 32 32"><path d="m30.937 29.137-7.362-7.362a12.86 12.86 0 0 0 2.925-8.181C26.5 6.469 20.719.688 13.594.688 6.463.688.688 6.469.688 13.594S6.463 26.5 13.594 26.5c3.106 0 5.95-1.094 8.175-2.919l7.362 7.356c.5.5 1.306.5 1.806 0 .5-.494.5-1.306 0-1.8zm-17.343-5.206c-5.706 0-10.344-4.637-10.344-10.337S7.888 3.25 13.594 3.25c5.7 0 10.344 4.644 10.344 10.344s-4.644 10.337-10.344 10.337z"/></symbol><symbol id="megaphone" viewBox="0 0 32 32"><path d="M30.125 4.073 15 9.078V7.563H3.75v1.875H0v9.375h3.75v1.875h1.875v9.375h5.456l1.875-9.375H15v-1.515l15.125 5.005v2.135H32V1.938h-1.875v2.135zM3.75 16.938H1.875v-5.625H3.75v5.625zm5.794 11.25H7.5v-7.5h3.544l-1.5 7.5zm3.581-9.376h-7.5V9.437h7.5v9.375zm17 3.39L15 17.197v-6.145l15.125-5.004v16.155z"/><path d="M7.5 11.313h3.75v1.875H7.5v-1.875zM7.5 15.063h3.75v1.875H7.5v-1.875z"/></symbol><symbol id="mobile-menu" viewBox="0 0 32 32"><path d="M28 25H4c-.6 0-1-.4-1-1s.4-1 1-1h24c.6 0 1 .4 1 1s-.4 1-1 1zm0-8H4c-.6 0-1-.4-1-1s.4-1 1-1h24c.6 0 1 .4 1 1s-.4 1-1 1zm0-8H4c-.6 0-1-.4-1-1s.4-1 1-1h24c.6 0 1 .4 1 1s-.4 1-1 1z"/></symbol><symbol id="quill-pen" viewBox="0 0 32 32"><path d="m18.313 23.111-3.75-3.75v-2.424h1.875v-1.875H3.312v1.875h1.875v2.424l-3.75 3.75V32h16.876v-8.889zm-11.25-6.174h5.625v1.875H7.063v-1.875zm-.549 3.75h6.724l1.875 1.875H4.639l1.875-1.875zm9.924 9.438H3.312v-5.688h13.126v5.688zM30.48 13.193c-.36-4.749-2.965-9.483-3.313-9.983L24.897.001l-2.27 3.209c-.69.989-3.355 6.179-3.355 11.099 0 5.522 3.231 9.932 3.369 10.117l1.297 1.742V32h1.875v-5.774l1.341-1.8c.09-.122 2.225-3.024 3.044-7.005l.305-1.483-.691-.691.765-.765-.098-1.288zm-2.017 3.355-.102.495c-.619 3.01-2.058 5.312-2.548 6.031v-6.137h-1.875v6.073c-.683-1.018-2.791-4.499-2.791-8.701 0-4.953 2.917-9.862 3.016-10.023l.734-1.038.732 1.035c.442.697 2.67 4.956 2.981 9.052l.032.43-1.482 1.482 1.302 1.303z"/><path d="M5.188 26.312h9.375v1.875H5.188v-1.875z"/></symbol><symbol id="quotes" viewBox="0 0 32 32"><path d="M31.994 9.805v-.01c0-4.207-3.41-7.617-7.617-7.617a7.617 7.617 0 1 0 0 15.234c.865 0 1.692-.151 2.467-.416-1.714 9.832-9.381 16.172-2.274 10.954 7.881-5.786 7.433-17.922 7.424-18.144zM7.617 17.412c.865 0 1.692-.151 2.467-.416C8.37 26.828.703 33.168 7.81 27.95c7.881-5.786 7.433-17.922 7.424-18.144v-.01c0-4.207-3.41-7.617-7.617-7.617a7.617 7.617 0 1 0 0 15.234z"/></symbol><symbol id="star" viewBox="0 0 32 32"><path d="M25.582 20.073c-.183.188-.32.42-.399.675s-.098.528-.054.793l1.393 8.547c.081.287.073.594-.023.875s-.274.524-.51.692a1.643 1.643 0 0 1-1.809.136l-7.442-4.226a1.514 1.514 0 0 0-1.466 0l-7.138 4.226a1.645 1.645 0 0 1-1.807-.137c-.27-.146-.494-.372-.643-.651s-.217-.597-.196-.916l1.706-8.724c.043-.265.025-.537-.054-.793s-.216-.488-.399-.675L.52 14.751c-.23-.235-.392-.533-.469-.86s-.065-.671.034-.991c.099-.321.282-.606.527-.823s.543-.358.86-.406l8.082-1.496c.253-.039.493-.141.7-.299s.374-.367.487-.608l3.72-8.264c.142-.303.363-.557.636-.734s.588-.27.909-.268c.32 0 .634.094.906.272s.491.432.633.735l3.574 8.264c.113.241.281.45.487.608s.447.261.7.299l8.227 1.496c.317.048.614.189.859.406s.427.502.525.823c.099.321.11.664.033.991s-.239.625-.468.861l-5.899 5.318z"/></symbol><symbol id="telegram" viewBox="0 0 32 32"><path d="M29.497 6.461 25.4 25.782c-.309 1.363-1.115 1.703-2.26 1.061l-6.243-4.6-3.012 2.897c-.334.334-.612.612-1.255.612l.449-6.357L24.648 8.941c.503-.448-.11-.697-.782-.248L9.563 17.7l-6.158-1.928c-1.339-.418-1.363-1.339.279-1.982l24.084-9.279c1.115-.418 2.091.248 1.727 1.952v-.001z"/></symbol><symbol id="user" viewBox="0 0 32 32"><path d="M16 18.024c-9.615 0-14.91 4.548-14.91 12.808 0 .645.523 1.168 1.168 1.168h27.484c.645 0 1.168-.523 1.168-1.168 0-8.259-5.295-12.808-14.91-12.808zM3.468 29.664C3.927 23.488 8.138 20.36 16 20.36s12.072 3.129 12.532 9.304H3.468zM16 0c-4.416 0-7.747 3.397-7.747 7.902 0 4.637 3.475 8.409 7.747 8.409s7.747-3.772 7.747-8.408C23.747 3.398 20.417 0 16 0zm0 13.976c-2.984 0-5.411-2.724-5.411-6.073 0-3.226 2.276-5.567 5.411-5.567 3.085 0 5.411 2.393 5.411 5.567 0 3.349-2.427 6.073-5.411 6.073z"/></symbol><symbol id="vk" viewBox="0 0 32 32"><path d="M28.385 9.348c.181-.601 0-1.042-.856-1.042h-2.835c-.721 0-1.051.381-1.232.8 0 0-1.442 3.515-3.485 5.795-.659.663-.961.873-1.32.873-.18 0-.441-.209-.441-.811V9.348c0-.721-.208-1.042-.809-1.042h-4.455c-.45 0-.721.334-.721.652 0 .683 1.021.84 1.126 2.764v4.173c0 .914-.164 1.081-.526 1.081-.961 0-3.298-3.528-4.686-7.568-.27-.785-.543-1.102-1.267-1.102H4.044c-.811 0-.972.381-.972.8 0 .752.961 4.476 4.475 9.401 2.343 3.363 5.641 5.186 8.646 5.186 1.801 0 2.023-.405 2.023-1.103v-2.542c0-.809.172-.972.742-.972.419 0 1.14.212 2.822 1.832 1.921 1.921 2.239 2.784 3.319 2.784h2.834c.809 0 1.214-.405.981-1.204-.255-.795-1.173-1.952-2.391-3.322-.662-.781-1.651-1.621-1.952-2.041-.42-.542-.299-.781 0-1.262.001.001 3.455-4.863 3.814-6.516z"/></symbol><symbol id="writing" viewBox="0 0 32 32"><path d="m18.229 10.798 3.975-6.874L15.826 0 11.04 8.112l-9.064 5.401L0 21.416l2.007 2.006-.772 1.309-.561 7.268 5.866-2.774v.824h9.372v-3.638l3.527 1.764h5.993l6.536-2.131V15.055h-4.603l-9.135-4.257zM16.47 2.597l3.198 1.968-1.12 1.936-3.301-1.833 1.222-2.071zm-2.175 3.685 3.315 1.842-4.071 7.041-.557-.279-7.126 5.701 8.44-14.305zm-10.69 8.442 5.449-3.247L2.99 21.756l-.915-.914 1.53-6.117zm2.652 12.562-3.466 1.639.279-3.616.323-.548.106-.106a5.88 5.88 0 0 0 3.325 1.687l-.567.943zm4.031.889H8.414v-.839l.657-1.092a5.86 5.86 0 0 0 1.217-.44v2.371zm3.748 0h-1.874v-3.559l.067-.045 1.807.903v2.701zm16.057-3.491-4.96 1.617H19.88l-7.786-3.893-2.177 1.451a4.02 4.02 0 0 1-4.815-.269l8.114-6.491 6.961 3.48.838-1.676-5.797-2.898 2.069-3.578 9.662 4.503h3.144v7.754z"/></symbol><symbol id="youtube" viewBox="0 0 32 32"><path d="m12.697 20.35 8.643-4.688-8.643-4.744v9.431zM16 4.188c2 0 3.932.028 5.795.084s3.229.116 4.098.178l1.303.075c.012 0 .113.009.304.028s.327.037.411.056c.083.019.223.047.42.084s.366.088.509.15c.143.063.309.144.5.244s.375.222.553.366a4.294 4.294 0 0 1 .795.844c.113.156.286.522.518 1.097.232.575.39 1.206.473 1.894.095.8.17 1.653.223 2.559s.086 1.616.098 2.128v3.3a41.506 41.506 0 0 1-.322 5.438c-.083.688-.232 1.309-.446 1.866s-.405.941-.571 1.153l-.25.319c-.167.188-.339.353-.518.497s-.363.262-.553.356c-.191.094-.357.172-.5.234s-.313.113-.509.15l-.428.084a9.187 9.187 0 0 1-.706.084c-2.988.238-6.72.356-11.196.356-2.464-.025-4.604-.066-6.42-.122s-3.009-.103-3.58-.141l-.875-.075-.643-.075c-.429-.063-.753-.125-.973-.188s-.524-.194-.911-.394a3.579 3.579 0 0 1-1.009-.769c-.071-.075-.164-.191-.277-.347s-.286-.522-.518-1.097a7.415 7.415 0 0 1-.473-1.894c-.095-.8-.17-1.653-.223-2.559s-.086-1.616-.098-2.128v-3.3a41.678 41.678 0 0 1 .321-5.438c.083-.688.232-1.309.446-1.866s.405-.941.571-1.153l.25-.319c.167-.188.339-.353.518-.497s.363-.266.554-.366c.19-.1.357-.181.5-.244s.313-.112.509-.15c.196-.037.336-.066.42-.084s.22-.037.411-.056a9.66 9.66 0 0 1 .304-.028c2.988-.225 6.72-.338 11.196-.338z"/></symbol>
<symbol id="greater-than-alt" viewBox="0 0 16 16"><path d="M10.6666 7.99998C10.6669 8.15575 10.6127 8.30671 10.5133 8.42665L7.17998 12.4266C7.06682 12.5628 6.90421 12.6484 6.72793 12.6647C6.55165 12.6809 6.37612 12.6265 6.23998 12.5133C6.10384 12.4002 6.01822 12.2375 6.00197 12.0613C5.98571 11.885 6.04015 11.7095 6.15331 11.5733L9.13998 7.99998L6.25998 4.42665C6.2046 4.35846 6.16325 4.27999 6.13829 4.19577C6.11334 4.11154 6.10528 4.02321 6.11457 3.93586C6.12386 3.84851 6.15033 3.76385 6.19244 3.68676C6.23456 3.60967 6.2915 3.54166 6.35998 3.48665C6.42853 3.42559 6.50894 3.37936 6.59619 3.35083C6.68344 3.3223 6.77564 3.3121 6.86702 3.32086C6.95839 3.32962 7.04698 3.35716 7.12721 3.40175C7.20745 3.44633 7.27762 3.50701 7.33331 3.57998L10.5533 7.57998C10.637 7.70337 10.6769 7.85125 10.6666 7.99998Z" /></symbol>
<symbol id="switcher-dots" viewBox="0 0 18 3">
<path d="M1.68309 3C2.50668 3 3.17434 2.32843 3.17434 1.5C3.17434 0.671573 2.50668 0 1.68309 0C0.859491 0 0.191833 0.671573 0.191833 1.5C0.191833 2.32843 0.859491 3 1.68309 3Z" fill="#DBDFEC"/>
<path d="M8.64232 3C9.46591 3 10.1336 2.32843 10.1336 1.5C10.1336 0.671573 9.46591 0 8.64232 0C7.81872 0 7.15106 0.671573 7.15106 1.5C7.15106 2.32843 7.81872 3 8.64232 3Z" fill="#DBDFEC"/>
<path d="M15.6014 3C16.425 3 17.0927 2.32843 17.0927 1.5C17.0927 0.671573 16.425 0 15.6014 0C14.7778 0 14.1102 0.671573 14.1102 1.5C14.1102 2.32843 14.7778 3 15.6014 3Z" fill="#DBDFEC"/>
</symbol>
<mask id="half">
  <rect x="0" y="0" width="32" height="32" fill="white" />
  <rect x="50%" y="0" width="32" height="32" fill="black" />
</mask>
</defs></svg>