<svg aria-hidden="true" style="position: absolute; width: 0; height: 0; overflow: hidden;" version="1.1" xmlns="http://www.w3.org/2000/svg" xmlns:xlink="http://www.w3.org/1999/xlink">
<defs>
<symbol id="icon-cloud" viewBox="0 0 36 32">
<path d="M35.556 13.914c0-2.874-2.105-5.265-4.853-5.714-0.863-3.762-4.23-6.498-8.173-6.498-3.526 0-6.67 2.225-7.871 5.488-4.099 0.937-7.356 4.195-8.217 8.396-3.629 0.465-6.442 3.574-6.442 7.327 0 4.073 3.314 7.387 7.387 7.387h19.398c4.073 0 7.387-3.314 7.387-7.387 0-1.529-0.467-2.95-1.265-4.13 1.628-1.045 2.649-2.853 2.649-4.869zM22.53 3.9c3.135 0 5.776 2.344 6.143 5.452l0.115 0.971h0.977c1.98 0 3.591 1.611 3.591 3.591 0 1.385-0.777 2.614-1.983 3.213-1.028-0.817-2.278-1.367-3.643-1.542-1.016-4.96-5.374-8.606-10.513-8.668 1.097-1.832 3.102-3.017 5.313-3.017zM26.785 28.1h-19.398c-2.861 0-5.188-2.327-5.188-5.188s2.327-5.188 5.188-5.188h0.977l0.115-0.971c0.514-4.355 4.215-7.638 8.607-7.638s8.092 3.284 8.607 7.638l0.115 0.971h0.977c2.861 0 5.188 2.327 5.188 5.188s-2.327 5.188-5.188 5.188z"></path>
</symbol>
<symbol id="icon-facebook" viewBox="0 0 32 32">
<path fill="#fff" style="fill: var(--color1, #fff)" d="M17.774 27.424v-10.408h3.511l0.522-4.075h-4.033v-2.595c0-1.176 0.328-1.981 2.015-1.981h2.138v-3.633c-1.040-0.112-2.086-0.165-3.133-0.161-3.104 0-5.234 1.895-5.234 5.373v2.991h-3.488v4.075h3.496v10.415h4.206z"></path>
</symbol>
<symbol id="icon-globe" viewBox="0 0 32 32">
<path d="M27.314 4.686c-3.022-3.022-7.040-4.686-11.314-4.686s-8.292 1.664-11.314 4.686-4.686 7.040-4.686 11.314c0 4.274 1.664 8.292 4.686 11.314s7.040 4.686 11.314 4.686c4.274 0 8.292-1.664 11.314-4.686s4.686-7.040 4.686-11.314c0-4.274-1.664-8.292-4.686-11.314zM22.352 11.848c1.457 0.262 2.798 0.615 3.971 1.053 2.381 0.889 3.802 2.048 3.802 3.099s-1.421 2.21-3.802 3.099c-1.172 0.438-2.514 0.791-3.971 1.053 0.139-1.337 0.211-2.73 0.211-4.152s-0.072-2.815-0.211-4.152zM25.988 6.012c1.82 1.82 3.082 4.050 3.7 6.481-0.738-0.498-1.645-0.951-2.709-1.349-1.431-0.534-3.086-0.952-4.883-1.24-0.289-1.797-0.706-3.452-1.24-4.883-0.397-1.065-0.851-1.971-1.349-2.709 2.431 0.618 4.661 1.88 6.481 3.7zM20.688 16c0 1.53-0.087 3.021-0.253 4.435-1.414 0.166-2.905 0.253-4.435 0.253s-3.021-0.087-4.435-0.253c-0.166-1.414-0.253-2.905-0.253-4.435s0.087-3.021 0.253-4.435c1.414-0.166 2.905-0.253 4.435-0.253s3.021 0.087 4.435 0.253c0.166 1.414 0.253 2.905 0.253 4.435zM16 1.875c1.052 0 2.21 1.421 3.099 3.802 0.438 1.172 0.791 2.514 1.053 3.971-1.337-0.139-2.731-0.21-4.152-0.21s-2.815 0.072-4.152 0.21c0.261-1.457 0.615-2.798 1.053-3.971 0.889-2.381 2.048-3.802 3.099-3.802zM6.012 6.012c1.82-1.82 4.050-3.082 6.481-3.7-0.498 0.739-0.951 1.645-1.349 2.709-0.534 1.431-0.952 3.086-1.24 4.883-1.797 0.288-3.452 0.706-4.883 1.24-1.065 0.398-1.971 0.851-2.709 1.349 0.618-2.431 1.88-4.661 3.7-6.481zM5.677 12.901c1.172-0.438 2.514-0.791 3.971-1.053-0.139 1.337-0.21 2.73-0.21 4.152s0.072 2.815 0.21 4.152c-1.457-0.261-2.798-0.615-3.971-1.053-2.381-0.889-3.802-2.048-3.802-3.099s1.421-2.21 3.802-3.099zM6.012 25.988c-1.82-1.82-3.082-4.050-3.7-6.481 0.739 0.498 1.645 0.951 2.709 1.349 1.431 0.534 3.086 0.952 4.883 1.24 0.288 1.797 0.706 3.452 1.24 4.883 0.398 1.065 0.851 1.971 1.349 2.709-2.431-0.618-4.661-1.88-6.481-3.7zM16 30.125c-1.052 0-2.21-1.421-3.099-3.802-0.438-1.172-0.791-2.514-1.053-3.971 1.337 0.139 2.73 0.211 4.152 0.211s2.815-0.072 4.152-0.211c-0.262 1.457-0.615 2.798-1.053 3.971-0.889 2.381-2.048 3.802-3.099 3.802zM25.988 25.988c-1.82 1.82-4.050 3.082-6.481 3.7 0.498-0.738 0.951-1.645 1.349-2.709 0.534-1.431 0.952-3.086 1.24-4.883 1.797-0.288 3.452-0.706 4.883-1.24 1.065-0.398 1.971-0.851 2.709-1.349-0.618 2.431-1.88 4.661-3.7 6.481z"></path>
</symbol>
<symbol id="icon-greater-arrow" viewBox="0 0 16 32">
<path fill="#fff" style="fill: var(--color1, #fff)" d="M14.934 16c0.001 0.498-0.173 0.982-0.491 1.365l-10.667 12.8c-0.362 0.436-0.882 0.71-1.447 0.762s-1.126-0.122-1.561-0.484c-0.436-0.362-0.71-0.882-0.762-1.447s0.122-1.126 0.484-1.561l9.557-11.435-9.216-11.435c-0.177-0.218-0.31-0.469-0.389-0.739s-0.106-0.552-0.076-0.832 0.114-0.55 0.249-0.797c0.135-0.247 0.317-0.464 0.536-0.64 0.219-0.195 0.477-0.343 0.756-0.435s0.574-0.124 0.867-0.096c0.292 0.028 0.576 0.116 0.833 0.259s0.481 0.337 0.66 0.57l10.304 12.8c0.268 0.395 0.395 0.868 0.363 1.344z"></path>
</symbol>
<symbol id="icon-instagram" viewBox="0 0 32 32">
<path fill="#fff" style="fill: var(--color1, #fff)" d="M27.361 11.307c-0.013-0.962-0.193-1.914-0.532-2.814-0.294-0.759-0.743-1.449-1.319-2.024s-1.265-1.025-2.024-1.319c-0.888-0.333-1.827-0.514-2.776-0.533-1.222-0.055-1.609-0.070-4.71-0.070s-3.498 0-4.711 0.070c-0.948 0.020-1.887 0.2-2.775 0.533-0.759 0.294-1.449 0.743-2.025 1.319s-1.025 1.265-1.319 2.025c-0.334 0.888-0.514 1.826-0.532 2.775-0.055 1.223-0.071 1.61-0.071 4.711s0 3.497 0.071 4.711c0.019 0.95 0.198 1.887 0.532 2.777 0.294 0.759 0.744 1.448 1.32 2.024s1.266 1.025 2.025 1.318c0.886 0.347 1.824 0.54 2.775 0.571 1.223 0.055 1.61 0.071 4.711 0.071s3.498 0 4.711-0.071c0.949-0.019 1.887-0.199 2.776-0.532 0.759-0.294 1.448-0.744 2.024-1.32s1.025-1.265 1.32-2.024c0.334-0.889 0.513-1.826 0.532-2.777 0.055-1.222 0.071-1.609 0.071-4.711-0.003-3.101-0.003-3.495-0.074-4.71zM15.993 21.843c-3.243 0-5.87-2.627-5.87-5.87s2.627-5.87 5.87-5.87c1.557 0 3.050 0.619 4.151 1.719s1.719 2.594 1.719 4.151c0 1.557-0.619 3.050-1.719 4.151s-2.594 1.719-4.151 1.719zM22.097 11.254c-0.18 0-0.358-0.035-0.524-0.104s-0.317-0.17-0.444-0.297c-0.127-0.127-0.228-0.278-0.297-0.444s-0.104-0.344-0.104-0.524c0-0.18 0.035-0.358 0.104-0.524s0.169-0.317 0.297-0.444 0.278-0.228 0.444-0.297c0.166-0.069 0.344-0.104 0.524-0.104s0.358 0.035 0.524 0.104c0.166 0.069 0.317 0.17 0.444 0.297s0.228 0.278 0.297 0.444c0.069 0.166 0.104 0.344 0.104 0.524 0 0.757-0.612 1.369-1.368 1.369z"></path>
<path fill="#fff" style="fill: var(--color1, #fff)" d="M15.992 19.786c2.106 0 3.813-1.707 3.813-3.813s-1.707-3.813-3.813-3.813c-2.106 0-3.813 1.707-3.813 3.813s1.707 3.813 3.813 3.813z"></path>
</symbol>
<symbol id="icon-loupe" viewBox="0 0 32 32">
<path d="M30.937 29.137l-7.362-7.362c1.825-2.225 2.925-5.075 2.925-8.181 0-7.125-5.781-12.906-12.906-12.906-7.131 0-12.906 5.781-12.906 12.906s5.775 12.906 12.906 12.906c3.106 0 5.95-1.094 8.175-2.919l7.362 7.356c0.5 0.5 1.306 0.5 1.806 0 0.5-0.494 0.5-1.306 0-1.8zM13.594 23.931c-5.706 0-10.344-4.637-10.344-10.337s4.638-10.344 10.344-10.344c5.7 0 10.344 4.644 10.344 10.344s-4.644 10.337-10.344 10.337z"></path>
</symbol>
<symbol id="icon-more-arrow" viewBox="0 0 50 32">
<path fill="#fff" style="fill: var(--color1, #fff)" d="M1.143 16c0-0.455 0.181-0.891 0.502-1.212s0.758-0.502 1.212-0.502h40.433l-10.79-10.786c-0.322-0.322-0.503-0.758-0.503-1.214s0.181-0.892 0.503-1.214c0.322-0.322 0.758-0.503 1.214-0.503s0.892 0.181 1.214 0.503l13.714 13.714c0.16 0.159 0.286 0.348 0.373 0.557s0.131 0.432 0.131 0.657c0 0.225-0.044 0.449-0.131 0.657s-0.213 0.397-0.373 0.557l-13.714 13.714c-0.322 0.322-0.758 0.503-1.214 0.503s-0.892-0.181-1.214-0.503c-0.322-0.322-0.503-0.759-0.503-1.214s0.181-0.892 0.503-1.214l10.79-10.786h-40.433c-0.455 0-0.891-0.181-1.212-0.502s-0.502-0.758-0.502-1.212z"></path>
</symbol>
<symbol id="icon-rectangle-doted-horizontal" viewBox="0 0 100 32">
<path fill="#fff" style="fill: var(--color1, #fff)" d="M0.258 1.514c0-0.674 0.539-1.116 1.067-1.116 0.49 0 0.942 0.404 1.067 1.136-0.004 0.346-0.117 0.615-0.292 0.797-0.178 0.184-0.439 0.299-0.775 0.299-0.627 0-1.067-0.545-1.067-1.116z"></path>
<path fill="#fff" style="fill: var(--color1, #fff)" d="M11.254 1.514c0-0.674 0.539-1.116 1.067-1.116 0.489 0 0.942 0.404 1.067 1.136-0.011 0.663-0.544 1.096-1.067 1.096-0.627 0-1.067-0.545-1.067-1.116z"></path>
<path fill="#fff" style="fill: var(--color1, #fff)" d="M22.118 1.514c0-0.674 0.539-1.116 1.067-1.116 0.336 0 0.597 0.115 0.775 0.299s0.292 0.461 0.292 0.817c0 0.674-0.539 1.116-1.067 1.116-0.628 0-1.067-0.545-1.067-1.116z"></path>
<path fill="#fff" style="fill: var(--color1, #fff)" d="M33.115 1.514c0-0.674 0.539-1.116 1.067-1.116 0.336 0 0.597 0.115 0.775 0.299s0.292 0.461 0.292 0.817c0 0.674-0.539 1.116-1.067 1.116-0.627 0-1.067-0.545-1.067-1.116z"></path>
<path fill="#fff" style="fill: var(--color1, #fff)" d="M44.111 1.514c0-0.674 0.539-1.116 1.067-1.116 0.336 0 0.597 0.115 0.775 0.299s0.292 0.461 0.292 0.817c0 0.674-0.539 1.116-1.067 1.116-0.627 0-1.067-0.545-1.067-1.116z"></path>
<path fill="#fff" style="fill: var(--color1, #fff)" d="M55.108 1.514c0-0.674 0.539-1.116 1.066-1.116 0.336 0 0.597 0.115 0.775 0.299s0.292 0.461 0.292 0.817c0 0.674-0.539 1.116-1.067 1.116-0.627 0-1.066-0.545-1.066-1.116z"></path>
<path fill="#fff" style="fill: var(--color1, #fff)" d="M66.104 1.514c0-0.674 0.539-1.116 1.067-1.116s1.067 0.442 1.067 1.116c0 0.674-0.539 1.116-1.067 1.116-0.628 0-1.067-0.545-1.067-1.116z"></path>
<path fill="#fff" style="fill: var(--color1, #fff)" d="M77.1 1.514c0-0.674 0.539-1.116 1.067-1.116s1.067 0.442 1.067 1.116-0.539 1.116-1.067 1.116c-0.627 0-1.067-0.545-1.067-1.116z"></path>
<path fill="#fff" style="fill: var(--color1, #fff)" d="M88.097 1.514c0-0.674 0.539-1.116 1.067-1.116s1.067 0.442 1.067 1.116c0 0.674-0.539 1.116-1.067 1.116-0.628 0-1.067-0.545-1.067-1.116z"></path>
<path fill="#fff" style="fill: var(--color1, #fff)" d="M99.093 1.514c0-0.674 0.539-1.116 1.067-1.116s1.067 0.442 1.067 1.116-0.539 1.116-1.067 1.116c-0.627 0-1.067-0.545-1.067-1.116z"></path>
<path fill="#fff" style="fill: var(--color1, #fff)" d="M0.258 11.125c0-0.674 0.539-1.116 1.067-1.116 0.237 0 0.47 0.123 0.669 0.344 0.193 0.215 0.336 0.505 0.397 0.797-0.005 0.344-0.118 0.612-0.292 0.792-0.178 0.184-0.439 0.299-0.775 0.299-0.627 0-1.067-0.545-1.067-1.116z"></path>
<path fill="#fff" style="fill: var(--color1, #fff)" d="M11.254 11.125c0-0.674 0.539-1.116 1.067-1.116 0.237 0 0.47 0.123 0.669 0.344 0.193 0.215 0.336 0.505 0.397 0.796-0.013 0.66-0.545 1.092-1.067 1.092-0.627 0-1.067-0.545-1.067-1.116z"></path>
<path fill="#fff" style="fill: var(--color1, #fff)" d="M22.118 11.125c0-0.674 0.539-1.116 1.067-1.116 0.627 0 1.067 0.545 1.067 1.116 0 0.674-0.539 1.116-1.067 1.116-0.628 0-1.067-0.545-1.067-1.116z"></path>
<path fill="#fff" style="fill: var(--color1, #fff)" d="M33.115 11.125c0-0.674 0.539-1.116 1.067-1.116 0.627 0 1.067 0.545 1.067 1.116 0 0.674-0.539 1.116-1.067 1.116-0.627 0-1.067-0.545-1.067-1.116z"></path>
<path fill="#fff" style="fill: var(--color1, #fff)" d="M44.111 11.125c0-0.674 0.539-1.116 1.067-1.116 0.627 0 1.067 0.545 1.067 1.116 0 0.674-0.539 1.116-1.067 1.116-0.627 0-1.067-0.545-1.067-1.116z"></path>
<path fill="#fff" style="fill: var(--color1, #fff)" d="M55.108 11.125c0-0.674 0.539-1.116 1.066-1.116 0.628 0 1.067 0.545 1.067 1.116 0 0.674-0.539 1.116-1.067 1.116-0.627 0-1.066-0.545-1.066-1.116z"></path>
<path fill="#fff" style="fill: var(--color1, #fff)" d="M66.104 11.125c0-0.674 0.539-1.116 1.067-1.116 0.244 0 0.512 0.129 0.725 0.35s0.342 0.503 0.342 0.766c0 0.674-0.539 1.116-1.067 1.116-0.628 0-1.067-0.545-1.067-1.116z"></path>
<path fill="#fff" style="fill: var(--color1, #fff)" d="M77.1 11.125c0-0.674 0.539-1.116 1.067-1.116 0.244 0 0.512 0.129 0.725 0.35s0.342 0.503 0.342 0.766c0 0.674-0.539 1.116-1.067 1.116-0.627 0-1.067-0.545-1.067-1.116z"></path>
<path fill="#fff" style="fill: var(--color1, #fff)" d="M88.097 11.125c0-0.674 0.539-1.116 1.067-1.116 0.244 0 0.512 0.129 0.725 0.35s0.342 0.503 0.342 0.766c0 0.674-0.539 1.116-1.067 1.116-0.628 0-1.067-0.545-1.067-1.116z"></path>
<path fill="#fff" style="fill: var(--color1, #fff)" d="M99.093 11.125c0-0.674 0.539-1.116 1.067-1.116 0.244 0 0.512 0.129 0.725 0.35s0.342 0.503 0.342 0.766c0 0.674-0.539 1.116-1.067 1.116-0.627 0-1.067-0.545-1.067-1.116z"></path>
<path fill="#fff" style="fill: var(--color1, #fff)" d="M2.392 20.875c0 0.625-0.486 1.116-1.067 1.116s-1.067-0.491-1.067-1.116c0-0.625 0.486-1.116 1.067-1.116s1.067 0.491 1.067 1.116z"></path>
<path fill="#fff" style="fill: var(--color1, #fff)" d="M13.388 20.875c0 0.625-0.486 1.116-1.067 1.116s-1.067-0.491-1.067-1.116c0-0.625 0.486-1.116 1.067-1.116s1.067 0.491 1.067 1.116z"></path>
<path fill="#fff" style="fill: var(--color1, #fff)" d="M22.118 20.875c0-0.674 0.539-1.116 1.067-1.116 0.336 0 0.597 0.115 0.775 0.299s0.292 0.461 0.292 0.817c0 0.674-0.539 1.116-1.067 1.116-0.336 0-0.597-0.115-0.775-0.299s-0.292-0.461-0.292-0.817z"></path>
<path fill="#fff" style="fill: var(--color1, #fff)" d="M33.115 20.875c0-0.674 0.539-1.116 1.067-1.116 0.336 0 0.597 0.115 0.775 0.299s0.292 0.461 0.292 0.817c0 0.674-0.539 1.116-1.067 1.116-0.336 0-0.597-0.115-0.775-0.299s-0.292-0.461-0.292-0.817z"></path>
<path fill="#fff" style="fill: var(--color1, #fff)" d="M44.111 20.875c0-0.674 0.539-1.116 1.067-1.116 0.336 0 0.597 0.115 0.775 0.299s0.292 0.461 0.292 0.817c0 0.674-0.539 1.116-1.067 1.116-0.336 0-0.597-0.115-0.775-0.299s-0.292-0.461-0.292-0.817z"></path>
<path fill="#fff" style="fill: var(--color1, #fff)" d="M55.108 20.875c0-0.674 0.539-1.116 1.066-1.116 0.336 0 0.597 0.115 0.775 0.299s0.292 0.461 0.292 0.817c0 0.674-0.539 1.116-1.067 1.116-0.335 0-0.597-0.115-0.775-0.299s-0.292-0.461-0.292-0.817z"></path>
<path fill="#fff" style="fill: var(--color1, #fff)" d="M66.104 20.875c0-0.674 0.539-1.116 1.067-1.116s1.067 0.442 1.067 1.116c0 0.674-0.539 1.116-1.067 1.116-0.336 0-0.597-0.115-0.775-0.299-0.179-0.185-0.292-0.461-0.292-0.817z"></path>
<path fill="#fff" style="fill: var(--color1, #fff)" d="M77.1 20.875c0-0.674 0.539-1.116 1.067-1.116s1.067 0.442 1.067 1.116c0 0.674-0.539 1.116-1.067 1.116-0.335 0-0.597-0.115-0.775-0.299s-0.292-0.461-0.292-0.817z"></path>
<path fill="#fff" style="fill: var(--color1, #fff)" d="M88.097 20.875c0-0.674 0.539-1.116 1.067-1.116s1.067 0.442 1.067 1.116c0 0.674-0.539 1.116-1.067 1.116-0.336 0-0.597-0.115-0.775-0.299-0.179-0.185-0.292-0.461-0.292-0.817z"></path>
<path fill="#fff" style="fill: var(--color1, #fff)" d="M99.093 20.875c0-0.674 0.539-1.116 1.067-1.116s1.067 0.442 1.067 1.116c0 0.674-0.539 1.116-1.067 1.116-0.336 0-0.597-0.115-0.775-0.299s-0.292-0.461-0.292-0.817z"></path>
<path fill="#fff" style="fill: var(--color1, #fff)" d="M2.392 30.489c0 0.625-0.486 1.116-1.067 1.116s-1.067-0.491-1.067-1.116c0-0.625 0.486-1.116 1.067-1.116s1.067 0.491 1.067 1.116z"></path>
<path fill="#fff" style="fill: var(--color1, #fff)" d="M13.388 30.489c0 0.625-0.486 1.116-1.067 1.116s-1.067-0.491-1.067-1.116c0-0.625 0.486-1.116 1.067-1.116s1.067 0.491 1.067 1.116z"></path>
<path fill="#fff" style="fill: var(--color1, #fff)" d="M22.118 30.626c0-0.674 0.539-1.116 1.067-1.116 0.336 0 0.597 0.115 0.775 0.299s0.292 0.461 0.292 0.817c0 0.674-0.539 1.116-1.067 1.116-0.628 0-1.067-0.545-1.067-1.116z"></path>
<path fill="#fff" style="fill: var(--color1, #fff)" d="M33.115 30.626c0-0.674 0.539-1.116 1.067-1.116 0.336 0 0.597 0.115 0.775 0.299s0.292 0.461 0.292 0.817c0 0.674-0.539 1.116-1.067 1.116-0.627 0-1.067-0.545-1.067-1.116z"></path>
<path fill="#fff" style="fill: var(--color1, #fff)" d="M44.111 30.626c0-0.674 0.539-1.116 1.067-1.116 0.336 0 0.597 0.115 0.775 0.299s0.292 0.461 0.292 0.817c0 0.674-0.539 1.116-1.067 1.116-0.627 0-1.067-0.545-1.067-1.116z"></path>
<path fill="#fff" style="fill: var(--color1, #fff)" d="M55.108 30.626c0-0.674 0.539-1.116 1.066-1.116 0.336 0 0.597 0.115 0.775 0.299s0.292 0.461 0.292 0.817c0 0.674-0.539 1.116-1.067 1.116-0.627 0-1.066-0.545-1.066-1.116z"></path>
<path fill="#fff" style="fill: var(--color1, #fff)" d="M66.104 30.626c0-0.674 0.539-1.116 1.067-1.116s1.067 0.442 1.067 1.116c0 0.674-0.539 1.116-1.067 1.116-0.628 0-1.067-0.545-1.067-1.116z"></path>
<path fill="#fff" style="fill: var(--color1, #fff)" d="M77.1 30.626c0-0.674 0.539-1.116 1.067-1.116s1.067 0.442 1.067 1.116c0 0.674-0.539 1.116-1.067 1.116-0.627 0-1.067-0.545-1.067-1.116z"></path>
<path fill="#fff" style="fill: var(--color1, #fff)" d="M88.097 30.626c0-0.674 0.539-1.116 1.067-1.116s1.067 0.442 1.067 1.116c0 0.674-0.539 1.116-1.067 1.116-0.628 0-1.067-0.545-1.067-1.116z"></path>
<path fill="#fff" style="fill: var(--color1, #fff)" d="M99.093 30.626c0-0.674 0.539-1.116 1.067-1.116s1.067 0.442 1.067 1.116c0 0.674-0.539 1.116-1.067 1.116-0.627 0-1.067-0.545-1.067-1.116z"></path>
</symbol>
<symbol id="icon-rectangle-doted-vertical" viewBox="0 0 7 32">
<path fill="#e55241" style="fill: var(--color2, #e55241); stroke: var(--color2, #e55241)" stroke="#e55241" stroke-linejoin="miter" stroke-linecap="butt" stroke-miterlimit="4" stroke-width="0.1517" d="M0.292 31.815c-0.116 0-0.216-0.101-0.216-0.208s0.1-0.209 0.216-0.209 0.216 0.101 0.216 0.209c0 0.108-0.1 0.208-0.216 0.208z"></path>
<path fill="#e55241" style="fill: var(--color2, #e55241); stroke: var(--color2, #e55241)" stroke="#e55241" stroke-linejoin="miter" stroke-linecap="butt" stroke-miterlimit="4" stroke-width="0.1517" d="M0.292 29.41c-0.116 0-0.216-0.101-0.216-0.209 0-0.124 0.097-0.209 0.216-0.209 0.116 0 0.216 0.101 0.216 0.209s-0.1 0.209-0.216 0.209z"></path>
<path fill="#e55241" style="fill: var(--color2, #e55241); stroke: var(--color2, #e55241)" stroke="#e55241" stroke-linejoin="miter" stroke-linecap="butt" stroke-miterlimit="4" stroke-width="0.1517" d="M0.292 27.005c-0.116 0-0.216-0.101-0.216-0.209 0-0.124 0.097-0.209 0.216-0.209 0.116 0 0.216 0.101 0.216 0.209s-0.1 0.209-0.216 0.209z"></path>
<path fill="#e55241" style="fill: var(--color2, #e55241); stroke: var(--color2, #e55241)" stroke="#e55241" stroke-linejoin="miter" stroke-linecap="butt" stroke-miterlimit="4" stroke-width="0.1517" d="M0.292 24.6c-0.116 0-0.216-0.101-0.216-0.209 0-0.124 0.097-0.209 0.216-0.209 0.116 0 0.216 0.101 0.216 0.209s-0.1 0.209-0.216 0.209z"></path>
<path fill="#e55241" style="fill: var(--color2, #e55241); stroke: var(--color2, #e55241)" stroke="#e55241" stroke-linejoin="miter" stroke-linecap="butt" stroke-miterlimit="4" stroke-width="0.1517" d="M0.292 22.195c-0.116 0-0.216-0.101-0.216-0.209 0-0.124 0.097-0.208 0.216-0.208 0.116 0 0.216 0.101 0.216 0.208s-0.1 0.209-0.216 0.209z"></path>
<path fill="#e55241" style="fill: var(--color2, #e55241); stroke: var(--color2, #e55241)" stroke="#e55241" stroke-linejoin="miter" stroke-linecap="butt" stroke-miterlimit="4" stroke-width="0.1517" d="M0.292 19.771c-0.116 0-0.216-0.101-0.216-0.209s0.1-0.209 0.216-0.209 0.216 0.101 0.216 0.209c0 0.108-0.1 0.209-0.216 0.209z"></path>
<path fill="#e55241" style="fill: var(--color2, #e55241); stroke: var(--color2, #e55241)" stroke="#e55241" stroke-linejoin="miter" stroke-linecap="butt" stroke-miterlimit="4" stroke-width="0.1517" d="M0.292 17.365c-0.116 0-0.216-0.101-0.216-0.209s0.1-0.209 0.216-0.209 0.216 0.101 0.216 0.209c0 0.108-0.1 0.209-0.216 0.209z"></path>
<path fill="#e55241" style="fill: var(--color2, #e55241); stroke: var(--color2, #e55241)" stroke="#e55241" stroke-linejoin="miter" stroke-linecap="butt" stroke-miterlimit="4" stroke-width="0.1517" d="M0.292 14.96c-0.116 0-0.216-0.101-0.216-0.209s0.1-0.209 0.216-0.209c0.116 0 0.216 0.101 0.216 0.209s-0.1 0.209-0.216 0.209z"></path>
<path fill="#e55241" style="fill: var(--color2, #e55241); stroke: var(--color2, #e55241)" stroke="#e55241" stroke-linejoin="miter" stroke-linecap="butt" stroke-miterlimit="4" stroke-width="0.1517" d="M0.292 12.556c-0.116 0-0.216-0.101-0.216-0.209s0.1-0.209 0.216-0.209c0.116 0 0.216 0.101 0.216 0.209s-0.1 0.209-0.216 0.209z"></path>
<path fill="#e55241" style="fill: var(--color2, #e55241); stroke: var(--color2, #e55241)" stroke="#e55241" stroke-linejoin="miter" stroke-linecap="butt" stroke-miterlimit="4" stroke-width="0.1517" d="M0.292 10.15c-0.116 0-0.216-0.101-0.216-0.209s0.1-0.209 0.216-0.209c0.116 0 0.216 0.101 0.216 0.209s-0.1 0.209-0.216 0.209z"></path>
<path fill="#e55241" style="fill: var(--color2, #e55241); stroke: var(--color2, #e55241)" stroke="#e55241" stroke-linejoin="miter" stroke-linecap="butt" stroke-miterlimit="4" stroke-width="0.1517" d="M0.292 7.745c-0.116 0-0.216-0.101-0.216-0.209s0.1-0.209 0.216-0.209c0.116 0 0.216 0.101 0.216 0.209s-0.1 0.209-0.216 0.209z"></path>
<path fill="#e55241" style="fill: var(--color2, #e55241); stroke: var(--color2, #e55241)" stroke="#e55241" stroke-linejoin="miter" stroke-linecap="butt" stroke-miterlimit="4" stroke-width="0.1517" d="M0.292 5.339c-0.116 0-0.216-0.101-0.216-0.209s0.1-0.209 0.216-0.209c0.116 0 0.216 0.101 0.216 0.209s-0.1 0.209-0.216 0.209z"></path>
<path fill="#e55241" style="fill: var(--color2, #e55241); stroke: var(--color2, #e55241)" stroke="#e55241" stroke-linejoin="miter" stroke-linecap="butt" stroke-miterlimit="4" stroke-width="0.1517" d="M0.292 2.934c-0.116 0-0.216-0.101-0.216-0.209s0.1-0.209 0.216-0.209c0.116 0 0.216 0.101 0.216 0.209s-0.1 0.209-0.216 0.209z"></path>
<path fill="#e55241" style="fill: var(--color2, #e55241); stroke: var(--color2, #e55241)" stroke="#e55241" stroke-linejoin="miter" stroke-linecap="butt" stroke-miterlimit="4" stroke-width="0.1517" d="M0.292 0.112c0.116 0 0.216 0.101 0.216 0.209s-0.1 0.209-0.216 0.209c-0.116 0-0.216-0.101-0.216-0.209s0.1-0.209 0.216-0.209z"></path>
<path fill="#e55241" style="fill: var(--color2, #e55241); stroke: var(--color2, #e55241)" stroke="#e55241" stroke-linejoin="miter" stroke-linecap="butt" stroke-miterlimit="4" stroke-width="0.1517" d="M2.414 31.815c-0.116 0-0.216-0.101-0.216-0.208s0.1-0.209 0.216-0.209 0.216 0.101 0.216 0.209c0 0.108-0.1 0.208-0.216 0.208z"></path>
<path fill="#e55241" style="fill: var(--color2, #e55241); stroke: var(--color2, #e55241)" stroke="#e55241" stroke-linejoin="miter" stroke-linecap="butt" stroke-miterlimit="4" stroke-width="0.1517" d="M2.414 29.41c-0.116 0-0.216-0.101-0.216-0.209 0-0.124 0.097-0.209 0.216-0.209 0.116 0 0.216 0.101 0.216 0.209s-0.1 0.209-0.216 0.209z"></path>
<path fill="#e55241" style="fill: var(--color2, #e55241); stroke: var(--color2, #e55241)" stroke="#e55241" stroke-linejoin="miter" stroke-linecap="butt" stroke-miterlimit="4" stroke-width="0.1517" d="M2.414 27.005c-0.116 0-0.216-0.101-0.216-0.209 0-0.124 0.097-0.209 0.216-0.209 0.116 0 0.216 0.101 0.216 0.209s-0.1 0.209-0.216 0.209z"></path>
<path fill="#e55241" style="fill: var(--color2, #e55241); stroke: var(--color2, #e55241)" stroke="#e55241" stroke-linejoin="miter" stroke-linecap="butt" stroke-miterlimit="4" stroke-width="0.1517" d="M2.414 24.6c-0.116 0-0.216-0.101-0.216-0.209 0-0.124 0.097-0.209 0.216-0.209 0.116 0 0.216 0.101 0.216 0.209s-0.1 0.209-0.216 0.209z"></path>
<path fill="#e55241" style="fill: var(--color2, #e55241); stroke: var(--color2, #e55241)" stroke="#e55241" stroke-linejoin="miter" stroke-linecap="butt" stroke-miterlimit="4" stroke-width="0.1517" d="M2.414 22.195c-0.116 0-0.216-0.101-0.216-0.209 0-0.124 0.097-0.208 0.216-0.208 0.116 0 0.216 0.101 0.216 0.208s-0.1 0.209-0.216 0.209z"></path>
<path fill="#e55241" style="fill: var(--color2, #e55241); stroke: var(--color2, #e55241)" stroke="#e55241" stroke-linejoin="miter" stroke-linecap="butt" stroke-miterlimit="4" stroke-width="0.1517" d="M2.414 19.771c-0.116 0-0.216-0.101-0.216-0.209s0.1-0.209 0.216-0.209 0.216 0.101 0.216 0.209c0 0.108-0.1 0.209-0.216 0.209z"></path>
<path fill="#e55241" style="fill: var(--color2, #e55241); stroke: var(--color2, #e55241)" stroke="#e55241" stroke-linejoin="miter" stroke-linecap="butt" stroke-miterlimit="4" stroke-width="0.1517" d="M2.414 17.365c-0.116 0-0.216-0.101-0.216-0.209s0.1-0.209 0.216-0.209 0.216 0.101 0.216 0.209c0 0.108-0.1 0.209-0.216 0.209z"></path>
<path fill="#e55241" style="fill: var(--color2, #e55241); stroke: var(--color2, #e55241)" stroke="#e55241" stroke-linejoin="miter" stroke-linecap="butt" stroke-miterlimit="4" stroke-width="0.1517" d="M2.414 14.96c-0.116 0-0.216-0.101-0.216-0.209s0.1-0.209 0.216-0.209c0.116 0 0.216 0.101 0.216 0.209s-0.1 0.209-0.216 0.209z"></path>
<path fill="#e55241" style="fill: var(--color2, #e55241); stroke: var(--color2, #e55241)" stroke="#e55241" stroke-linejoin="miter" stroke-linecap="butt" stroke-miterlimit="4" stroke-width="0.1517" d="M2.414 12.556c-0.116 0-0.216-0.101-0.216-0.209s0.1-0.209 0.216-0.209c0.116 0 0.216 0.101 0.216 0.209s-0.1 0.209-0.216 0.209z"></path>
<path fill="#e55241" style="fill: var(--color2, #e55241); stroke: var(--color2, #e55241)" stroke="#e55241" stroke-linejoin="miter" stroke-linecap="butt" stroke-miterlimit="4" stroke-width="0.1517" d="M2.414 10.15c-0.116 0-0.216-0.101-0.216-0.209s0.1-0.209 0.216-0.209c0.116 0 0.216 0.101 0.216 0.209s-0.1 0.209-0.216 0.209z"></path>
<path fill="#e55241" style="fill: var(--color2, #e55241); stroke: var(--color2, #e55241)" stroke="#e55241" stroke-linejoin="miter" stroke-linecap="butt" stroke-miterlimit="4" stroke-width="0.1517" d="M2.414 7.745c-0.116 0-0.216-0.101-0.216-0.209s0.1-0.209 0.216-0.209c0.116 0 0.216 0.101 0.216 0.209s-0.1 0.209-0.216 0.209z"></path>
<path fill="#e55241" style="fill: var(--color2, #e55241); stroke: var(--color2, #e55241)" stroke="#e55241" stroke-linejoin="miter" stroke-linecap="butt" stroke-miterlimit="4" stroke-width="0.1517" d="M2.414 5.339c-0.116 0-0.216-0.101-0.216-0.209s0.1-0.209 0.216-0.209c0.116 0 0.216 0.101 0.216 0.209s-0.1 0.209-0.216 0.209z"></path>
<path fill="#e55241" style="fill: var(--color2, #e55241); stroke: var(--color2, #e55241)" stroke="#e55241" stroke-linejoin="miter" stroke-linecap="butt" stroke-miterlimit="4" stroke-width="0.1517" d="M2.414 2.934c-0.116 0-0.216-0.101-0.216-0.209s0.1-0.209 0.216-0.209c0.116 0 0.216 0.101 0.216 0.209s-0.1 0.209-0.216 0.209z"></path>
<path fill="#e55241" style="fill: var(--color2, #e55241); stroke: var(--color2, #e55241)" stroke="#e55241" stroke-linejoin="miter" stroke-linecap="butt" stroke-miterlimit="4" stroke-width="0.1517" d="M2.414 0.529c-0.116 0-0.216-0.101-0.216-0.209s0.1-0.209 0.216-0.209c0.116 0 0.216 0.101 0.216 0.209s-0.1 0.209-0.216 0.209z"></path>
<path fill="#e55241" style="fill: var(--color2, #e55241); stroke: var(--color2, #e55241)" stroke="#e55241" stroke-linejoin="miter" stroke-linecap="butt" stroke-miterlimit="4" stroke-width="0.1517" d="M4.516 31.815c-0.116 0-0.216-0.101-0.216-0.208s0.1-0.209 0.216-0.209 0.216 0.101 0.216 0.209c0 0.108-0.1 0.208-0.216 0.208z"></path>
<path fill="#e55241" style="fill: var(--color2, #e55241); stroke: var(--color2, #e55241)" stroke="#e55241" stroke-linejoin="miter" stroke-linecap="butt" stroke-miterlimit="4" stroke-width="0.1517" d="M4.516 29.41c-0.116 0-0.216-0.101-0.216-0.209 0-0.124 0.097-0.209 0.216-0.209 0.116 0 0.216 0.101 0.216 0.209s-0.1 0.209-0.216 0.209z"></path>
<path fill="#e55241" style="fill: var(--color2, #e55241); stroke: var(--color2, #e55241)" stroke="#e55241" stroke-linejoin="miter" stroke-linecap="butt" stroke-miterlimit="4" stroke-width="0.1517" d="M4.516 27.005c-0.116 0-0.216-0.101-0.216-0.209 0-0.124 0.097-0.209 0.216-0.209 0.116 0 0.216 0.101 0.216 0.209s-0.1 0.209-0.216 0.209z"></path>
<path fill="#e55241" style="fill: var(--color2, #e55241); stroke: var(--color2, #e55241)" stroke="#e55241" stroke-linejoin="miter" stroke-linecap="butt" stroke-miterlimit="4" stroke-width="0.1517" d="M4.516 24.6c-0.116 0-0.216-0.101-0.216-0.209 0-0.124 0.097-0.209 0.216-0.209 0.116 0 0.216 0.101 0.216 0.209s-0.1 0.209-0.216 0.209z"></path>
<path fill="#e55241" style="fill: var(--color2, #e55241); stroke: var(--color2, #e55241)" stroke="#e55241" stroke-linejoin="miter" stroke-linecap="butt" stroke-miterlimit="4" stroke-width="0.1517" d="M4.516 22.195c-0.116 0-0.216-0.101-0.216-0.209 0-0.124 0.097-0.208 0.216-0.208 0.116 0 0.216 0.101 0.216 0.208s-0.1 0.209-0.216 0.209z"></path>
<path fill="#e55241" style="fill: var(--color2, #e55241); stroke: var(--color2, #e55241)" stroke="#e55241" stroke-linejoin="miter" stroke-linecap="butt" stroke-miterlimit="4" stroke-width="0.1517" d="M4.516 19.771c-0.116 0-0.216-0.101-0.216-0.209s0.1-0.209 0.216-0.209 0.216 0.101 0.216 0.209c0 0.108-0.1 0.209-0.216 0.209z"></path>
<path fill="#e55241" style="fill: var(--color2, #e55241); stroke: var(--color2, #e55241)" stroke="#e55241" stroke-linejoin="miter" stroke-linecap="butt" stroke-miterlimit="4" stroke-width="0.1517" d="M4.516 17.365c-0.116 0-0.216-0.101-0.216-0.209s0.1-0.209 0.216-0.209 0.216 0.101 0.216 0.209c0 0.108-0.1 0.209-0.216 0.209z"></path>
<path fill="#e55241" style="fill: var(--color2, #e55241); stroke: var(--color2, #e55241)" stroke="#e55241" stroke-linejoin="miter" stroke-linecap="butt" stroke-miterlimit="4" stroke-width="0.1517" d="M4.516 14.96c-0.116 0-0.216-0.101-0.216-0.209s0.1-0.209 0.216-0.209c0.116 0 0.216 0.101 0.216 0.209s-0.1 0.209-0.216 0.209z"></path>
<path fill="#e55241" style="fill: var(--color2, #e55241); stroke: var(--color2, #e55241)" stroke="#e55241" stroke-linejoin="miter" stroke-linecap="butt" stroke-miterlimit="4" stroke-width="0.1517" d="M4.516 12.556c-0.116 0-0.216-0.101-0.216-0.209s0.1-0.209 0.216-0.209c0.116 0 0.216 0.101 0.216 0.209s-0.1 0.209-0.216 0.209z"></path>
<path fill="#e55241" style="fill: var(--color2, #e55241); stroke: var(--color2, #e55241)" stroke="#e55241" stroke-linejoin="miter" stroke-linecap="butt" stroke-miterlimit="4" stroke-width="0.1517" d="M4.516 10.15c-0.116 0-0.216-0.101-0.216-0.209s0.1-0.209 0.216-0.209c0.116 0 0.216 0.101 0.216 0.209s-0.1 0.209-0.216 0.209z"></path>
<path fill="#e55241" style="fill: var(--color2, #e55241); stroke: var(--color2, #e55241)" stroke="#e55241" stroke-linejoin="miter" stroke-linecap="butt" stroke-miterlimit="4" stroke-width="0.1517" d="M4.516 7.745c-0.116 0-0.216-0.101-0.216-0.209s0.1-0.209 0.216-0.209c0.116 0 0.216 0.101 0.216 0.209s-0.1 0.209-0.216 0.209z"></path>
<path fill="#e55241" style="fill: var(--color2, #e55241); stroke: var(--color2, #e55241)" stroke="#e55241" stroke-linejoin="miter" stroke-linecap="butt" stroke-miterlimit="4" stroke-width="0.1517" d="M4.516 5.339c-0.116 0-0.216-0.101-0.216-0.209s0.1-0.209 0.216-0.209c0.116 0 0.216 0.101 0.216 0.209s-0.1 0.209-0.216 0.209z"></path>
<path fill="#e55241" style="fill: var(--color2, #e55241); stroke: var(--color2, #e55241)" stroke="#e55241" stroke-linejoin="miter" stroke-linecap="butt" stroke-miterlimit="4" stroke-width="0.1517" d="M4.516 2.934c-0.116 0-0.216-0.101-0.216-0.209s0.1-0.209 0.216-0.209c0.116 0 0.216 0.101 0.216 0.209s-0.1 0.209-0.216 0.209z"></path>
<path fill="#e55241" style="fill: var(--color2, #e55241); stroke: var(--color2, #e55241)" stroke="#e55241" stroke-linejoin="miter" stroke-linecap="butt" stroke-miterlimit="4" stroke-width="0.1517" d="M4.516 0.529c-0.116 0-0.216-0.101-0.216-0.209s0.1-0.209 0.216-0.209c0.116 0 0.216 0.101 0.216 0.209s-0.1 0.209-0.216 0.209z"></path>
<path fill="#e55241" style="fill: var(--color2, #e55241); stroke: var(--color2, #e55241)" stroke="#e55241" stroke-linejoin="miter" stroke-linecap="butt" stroke-miterlimit="4" stroke-width="0.1517" d="M6.638 31.815c-0.116 0-0.216-0.101-0.216-0.208s0.1-0.209 0.216-0.209 0.216 0.101 0.216 0.209c0 0.108-0.1 0.208-0.216 0.208z"></path>
<path fill="#e55241" style="fill: var(--color2, #e55241); stroke: var(--color2, #e55241)" stroke="#e55241" stroke-linejoin="miter" stroke-linecap="butt" stroke-miterlimit="4" stroke-width="0.1517" d="M6.638 29.41c-0.116 0-0.216-0.101-0.216-0.209 0-0.124 0.097-0.209 0.216-0.209 0.116 0 0.216 0.101 0.216 0.209s-0.1 0.209-0.216 0.209z"></path>
<path fill="#e55241" style="fill: var(--color2, #e55241); stroke: var(--color2, #e55241)" stroke="#e55241" stroke-linejoin="miter" stroke-linecap="butt" stroke-miterlimit="4" stroke-width="0.1517" d="M6.638 27.005c-0.116 0-0.216-0.101-0.216-0.209 0-0.124 0.097-0.209 0.216-0.209 0.116 0 0.216 0.101 0.216 0.209s-0.1 0.209-0.216 0.209z"></path>
<path fill="#e55241" style="fill: var(--color2, #e55241); stroke: var(--color2, #e55241)" stroke="#e55241" stroke-linejoin="miter" stroke-linecap="butt" stroke-miterlimit="4" stroke-width="0.1517" d="M6.638 24.6c-0.116 0-0.216-0.101-0.216-0.209 0-0.124 0.097-0.209 0.216-0.209 0.116 0 0.216 0.101 0.216 0.209s-0.1 0.209-0.216 0.209z"></path>
<path fill="#e55241" style="fill: var(--color2, #e55241); stroke: var(--color2, #e55241)" stroke="#e55241" stroke-linejoin="miter" stroke-linecap="butt" stroke-miterlimit="4" stroke-width="0.1517" d="M6.638 22.195c-0.116 0-0.216-0.101-0.216-0.209 0-0.124 0.097-0.208 0.216-0.208 0.116 0 0.216 0.101 0.216 0.208s-0.1 0.209-0.216 0.209z"></path>
<path fill="#e55241" style="fill: var(--color2, #e55241); stroke: var(--color2, #e55241)" stroke="#e55241" stroke-linejoin="miter" stroke-linecap="butt" stroke-miterlimit="4" stroke-width="0.1517" d="M6.638 19.771c-0.116 0-0.216-0.101-0.216-0.209s0.1-0.209 0.216-0.209 0.216 0.101 0.216 0.209c0 0.108-0.1 0.209-0.216 0.209z"></path>
<path fill="#e55241" style="fill: var(--color2, #e55241); stroke: var(--color2, #e55241)" stroke="#e55241" stroke-linejoin="miter" stroke-linecap="butt" stroke-miterlimit="4" stroke-width="0.1517" d="M6.638 17.365c-0.116 0-0.216-0.101-0.216-0.209s0.1-0.209 0.216-0.209 0.216 0.101 0.216 0.209c0 0.108-0.1 0.209-0.216 0.209z"></path>
<path fill="#e55241" style="fill: var(--color2, #e55241); stroke: var(--color2, #e55241)" stroke="#e55241" stroke-linejoin="miter" stroke-linecap="butt" stroke-miterlimit="4" stroke-width="0.1517" d="M6.638 14.96c-0.116 0-0.216-0.101-0.216-0.209s0.1-0.209 0.216-0.209c0.116 0 0.216 0.101 0.216 0.209s-0.1 0.209-0.216 0.209z"></path>
<path fill="#e55241" style="fill: var(--color2, #e55241); stroke: var(--color2, #e55241)" stroke="#e55241" stroke-linejoin="miter" stroke-linecap="butt" stroke-miterlimit="4" stroke-width="0.1517" d="M6.638 12.556c-0.116 0-0.216-0.101-0.216-0.209s0.1-0.209 0.216-0.209c0.116 0 0.216 0.101 0.216 0.209s-0.1 0.209-0.216 0.209z"></path>
<path fill="#e55241" style="fill: var(--color2, #e55241); stroke: var(--color2, #e55241)" stroke="#e55241" stroke-linejoin="miter" stroke-linecap="butt" stroke-miterlimit="4" stroke-width="0.1517" d="M6.638 10.15c-0.116 0-0.216-0.101-0.216-0.209s0.1-0.209 0.216-0.209c0.116 0 0.216 0.101 0.216 0.209s-0.1 0.209-0.216 0.209z"></path>
<path fill="#e55241" style="fill: var(--color2, #e55241); stroke: var(--color2, #e55241)" stroke="#e55241" stroke-linejoin="miter" stroke-linecap="butt" stroke-miterlimit="4" stroke-width="0.1517" d="M6.638 7.745c-0.116 0-0.216-0.101-0.216-0.209s0.1-0.209 0.216-0.209c0.116 0 0.216 0.101 0.216 0.209s-0.1 0.209-0.216 0.209z"></path>
<path fill="#e55241" style="fill: var(--color2, #e55241); stroke: var(--color2, #e55241)" stroke="#e55241" stroke-linejoin="miter" stroke-linecap="butt" stroke-miterlimit="4" stroke-width="0.1517" d="M6.638 5.339c-0.116 0-0.216-0.101-0.216-0.209s0.1-0.209 0.216-0.209c0.116 0 0.216 0.101 0.216 0.209s-0.1 0.209-0.216 0.209z"></path>
<path fill="#e55241" style="fill: var(--color2, #e55241); stroke: var(--color2, #e55241)" stroke="#e55241" stroke-linejoin="miter" stroke-linecap="butt" stroke-miterlimit="4" stroke-width="0.1517" d="M6.638 2.934c-0.116 0-0.216-0.101-0.216-0.209s0.1-0.209 0.216-0.209c0.116 0 0.216 0.101 0.216 0.209s-0.1 0.209-0.216 0.209z"></path>
<path fill="#e55241" style="fill: var(--color2, #e55241); stroke: var(--color2, #e55241)" stroke="#e55241" stroke-linejoin="miter" stroke-linecap="butt" stroke-miterlimit="4" stroke-width="0.1517" d="M6.638 0.529c-0.116 0-0.216-0.101-0.216-0.209s0.1-0.209 0.216-0.209c0.116 0 0.216 0.101 0.216 0.209s-0.1 0.209-0.216 0.209z"></path>
</symbol>
<symbol id="icon-rhombus" viewBox="0 0 32 32">
<path fill="#e55241" style="fill: var(--color2, #e55241); stroke: var(--color2, #e55241)" stroke="#e55241" stroke-linejoin="miter" stroke-linecap="butt" stroke-miterlimit="4" stroke-width="0.9697" d="M4.739 15.657l-0.343 0.343 11.604 11.604 11.604-11.604-11.604-11.604-11.261 11.261zM0.686 16l15.314-15.314 15.314 15.314-15.314 15.314-15.314-15.314z"></path>
</symbol>
<symbol id="icon-telegram" viewBox="0 0 32 32">
<path fill="#fff" style="fill: var(--color1, #fff)" d="M29.256 6.631l-4.024 18.976c-0.304 1.339-1.095 1.672-2.22 1.042l-6.131-4.518-2.958 2.846c-0.328 0.328-0.601 0.601-1.232 0.601l0.441-6.244 11.363-10.268c0.494-0.44-0.108-0.685-0.768-0.244l-14.048 8.846-6.048-1.893c-1.315-0.41-1.339-1.315 0.274-1.947l23.654-9.113c1.095-0.41 2.053 0.244 1.696 1.917v-0.001z"></path>
</symbol>
<symbol id="icon-user" viewBox="0 0 20 20">
<path d="M10 11.2652C3.99077 11.2652 0.681274 14.108 0.681274 19.2701C0.681274 19.6732 1.00803 20 1.4112 20H18.5888C18.992 20 19.3187 19.6732 19.3187 19.2701C19.3188 14.1083 16.0093 11.2652 10 11.2652ZM2.16768 18.5402C2.45479 14.6805 5.08616 12.7251 10 12.7251C14.9139 12.7251 17.5453 14.6805 17.8326 18.5402H2.16768Z" />
<path d="M10 0C7.23969 0 5.1582 2.12336 5.1582 4.93895C5.1582 7.83699 7.33023 10.1944 10 10.1944C12.6698 10.1944 14.8419 7.83699 14.8419 4.93918C14.8419 2.12336 12.7604 0 10 0ZM10 8.7348C8.13508 8.7348 6.61805 7.03211 6.61805 4.93918C6.61805 2.92313 8.04043 1.45984 10 1.45984C11.9283 1.45984 13.382 2.95547 13.382 4.93918C13.382 7.03211 11.865 8.7348 10 8.7348Z" />
</symbol>
<symbol id="icon-vk" viewBox="0 0 32 32">
<path fill="#fff" style="fill: var(--color1, #fff)" d="M28.164 9.467c0.178-0.59 0-1.024-0.841-1.024h-2.785c-0.709 0-1.032 0.375-1.21 0.786 0 0-1.416 3.453-3.422 5.691-0.648 0.651-0.943 0.857-1.296 0.857-0.177 0-0.433-0.206-0.433-0.796v-5.515c0-0.709-0.204-1.024-0.795-1.024h-4.376c-0.442 0-0.709 0.328-0.709 0.64 0 0.67 1.003 0.825 1.106 2.715v4.099c0 0.898-0.161 1.062-0.517 1.062-0.944 0-3.239-3.465-4.602-7.432-0.265-0.771-0.533-1.082-1.244-1.082h-2.784c-0.796 0-0.955 0.375-0.955 0.786 0 0.739 0.943 4.396 4.395 9.233 2.301 3.303 5.54 5.093 8.491 5.093 1.769 0 1.987-0.397 1.987-1.083v-2.497c0-0.795 0.169-0.955 0.729-0.955 0.411 0 1.12 0.208 2.772 1.799 1.887 1.887 2.199 2.734 3.26 2.734h2.784c0.795 0 1.192-0.397 0.964-1.182-0.25-0.781-1.152-1.918-2.348-3.262-0.65-0.767-1.622-1.592-1.918-2.005-0.413-0.532-0.293-0.767 0-1.239 0.001 0.001 3.393-4.776 3.746-6.4v0z"></path>
</symbol>
<symbol id="icon-youtube" viewBox="0 0 43 32">
<path fill="#fff" style="fill: var(--color1, #fff)" d="M16.929 21.8l11.524-6.25-11.524-6.325v12.575zM21.333 0.25c2.667 0 5.242 0.037 7.726 0.112s4.306 0.154 5.464 0.237l1.738 0.1c0.016 0 0.151 0.012 0.405 0.037s0.437 0.050 0.548 0.075c0.111 0.025 0.298 0.063 0.559 0.113s0.488 0.117 0.679 0.2c0.19 0.083 0.413 0.192 0.667 0.325s0.5 0.296 0.738 0.488c0.238 0.192 0.468 0.413 0.691 0.663 0.095 0.1 0.218 0.254 0.369 0.462s0.381 0.696 0.69 1.463c0.31 0.767 0.52 1.608 0.631 2.525 0.127 1.067 0.226 2.204 0.298 3.412s0.115 2.154 0.131 2.838v4.4c0.016 2.417-0.127 4.833-0.429 7.25-0.111 0.917-0.309 1.746-0.595 2.487s-0.54 1.254-0.762 1.538l-0.333 0.425c-0.222 0.25-0.452 0.471-0.691 0.663s-0.484 0.35-0.738 0.475c-0.254 0.125-0.476 0.229-0.667 0.313s-0.417 0.15-0.679 0.2c-0.262 0.050-0.452 0.087-0.571 0.113s-0.302 0.050-0.548 0.075c-0.246 0.025-0.377 0.038-0.393 0.038-3.984 0.317-8.96 0.475-14.929 0.475-3.286-0.033-6.139-0.087-8.559-0.163s-4.012-0.137-4.774-0.187l-1.167-0.1-0.857-0.1c-0.571-0.083-1.004-0.167-1.298-0.25s-0.698-0.258-1.214-0.525c-0.516-0.267-0.964-0.608-1.345-1.025-0.095-0.1-0.218-0.254-0.369-0.463s-0.381-0.696-0.69-1.462c-0.31-0.767-0.52-1.608-0.631-2.525-0.127-1.067-0.226-2.204-0.298-3.413s-0.115-2.154-0.131-2.837v-4.4c-0.016-2.417 0.127-4.833 0.429-7.25 0.111-0.917 0.31-1.746 0.595-2.487s0.54-1.254 0.762-1.538l0.333-0.425c0.222-0.25 0.452-0.471 0.69-0.663s0.484-0.354 0.738-0.488c0.254-0.133 0.476-0.242 0.667-0.325s0.417-0.15 0.679-0.2c0.262-0.050 0.448-0.088 0.56-0.113s0.294-0.050 0.548-0.075c0.254-0.025 0.389-0.037 0.405-0.037 3.984-0.3 8.96-0.45 14.928-0.45z"></path>
</symbol>
<symbol id="icon-menu-mobile" viewBox="0 0 32 32">
<path d="M4 24h24M4 8h24H4Zm0 8h24H4Z" stroke="#fff" stroke-width="2" stroke-linecap="round" stroke-linejoin="round"/>
</symbol>
<symbol id="icon-menu-mobile-cross" viewBox="0 0 32 32">
<path fill-rule="evenodd" clip-rule="evenodd" d="M25.135 8.602a1.226 1.226 0 1 0-1.734-1.737l-7.4 7.4-7.399-7.4a1.228 1.228 0 1 0-1.736 1.737l7.4 7.398-7.4 7.398a1.227 1.227 0 1 0 1.736 1.737l7.398-7.4 7.401 7.4a1.227 1.227 0 0 0 1.734-1.737L17.735 16l7.4-7.398Z" fill="#fff"/>
</symbol>
</defs>
</svg>
