<svg width="28" height="28" viewBox="0 0 28 28" fill="none" xmlns="http://www.w3.org/2000/svg">
<path d="M23.9413 9.89407C23.9301 9.05254 23.7725 8.21938 23.4757 7.43185C23.2183 6.76757 22.8252 6.16429 22.3215 5.66055C21.8177 5.15681 21.2144 4.76368 20.5502 4.50629C19.7728 4.21447 18.9515 4.05667 18.1213 4.03963C17.0524 3.99185 16.7135 3.97852 14.0002 3.97852C11.2868 3.97852 10.939 3.97852 9.87794 4.03963C9.04811 4.0568 8.22721 4.21459 7.45016 4.50629C6.78578 4.7635 6.18241 5.15657 5.67864 5.66033C5.17488 6.16409 4.78181 6.76747 4.5246 7.43185C4.23219 8.20866 4.07474 9.02975 4.05905 9.85963C4.01127 10.9296 3.99683 11.2685 3.99683 13.9818C3.99683 16.6952 3.99683 17.0419 4.05905 18.1041C4.07572 18.9352 4.23238 19.7552 4.5246 20.5341C4.78225 21.1982 5.1756 21.8014 5.67953 22.3049C6.18347 22.8085 6.7869 23.2014 7.45127 23.4585C8.2262 23.7621 9.04724 23.9312 9.87905 23.9585C10.949 24.0063 11.2879 24.0207 14.0013 24.0207C16.7146 24.0207 17.0624 24.0207 18.1235 23.9585C18.9537 23.9422 19.775 23.7847 20.5524 23.493C21.2165 23.2353 21.8196 22.842 22.3233 22.3383C22.827 21.8346 23.2202 21.2315 23.4779 20.5674C23.7702 19.7896 23.9268 18.9696 23.9435 18.1374C23.9913 17.0685 24.0057 16.7296 24.0057 14.0152C24.0035 11.3018 24.0035 10.9574 23.9413 9.89407ZM13.9935 19.113C11.1557 19.113 8.85683 16.8141 8.85683 13.9763C8.85683 11.1385 11.1557 8.83963 13.9935 8.83963C15.3558 8.83963 16.6624 9.38081 17.6257 10.3441C18.589 11.3074 19.1302 12.614 19.1302 13.9763C19.1302 15.3386 18.589 16.6452 17.6257 17.6085C16.6624 18.5718 15.3558 19.113 13.9935 19.113ZM19.3346 9.8474C19.1773 9.84755 19.0214 9.81667 18.8761 9.75653C18.7307 9.69639 18.5986 9.60816 18.4873 9.49691C18.3761 9.38566 18.2878 9.25356 18.2277 9.10817C18.1676 8.96278 18.1367 8.80696 18.1368 8.64963C18.1368 8.49241 18.1678 8.33672 18.228 8.19147C18.2881 8.04622 18.3763 7.91424 18.4875 7.80306C18.5987 7.69189 18.7306 7.6037 18.8759 7.54354C19.0211 7.48337 19.1768 7.4524 19.334 7.4524C19.4913 7.4524 19.647 7.48337 19.7922 7.54354C19.9375 7.6037 20.0694 7.69189 20.1806 7.80306C20.2918 7.91424 20.38 8.04622 20.4401 8.19147C20.5003 8.33672 20.5313 8.49241 20.5313 8.64963C20.5313 9.31185 19.9957 9.8474 19.3346 9.8474Z" fill="white"/>
<path d="M13.9934 17.313C15.8362 17.313 17.3301 15.8191 17.3301 13.9763C17.3301 12.1335 15.8362 10.6396 13.9934 10.6396C12.1506 10.6396 10.6567 12.1335 10.6567 13.9763C10.6567 15.8191 12.1506 17.313 13.9934 17.313Z" fill="white"/>
</svg>
