<svg width="24" height="24" fill="none" xmlns="http://www.w3.org/2000/svg"><path d="M21.867 7.859c.276-.319.509-.552.509-.552s-.135.05-.368.05c-1.52.14-3.127.048-3.911-1.515-.05-.049 0-.049-.05-.14-.232.318-.324.502-.692.919-.319.368-.687.735-1.104.968-.416.276-.968.368-1.428.092-.503-.319-.6-.962-.552-1.471.092-.552.276-1.06.51-1.563.275-.601.41-.742.643-1.06-.368 0-.779.048-1.196-.185-.92-.551-1.514-1.704-1.93-2.666C12.113.325 12.02 0 12.02 0s-.14.41-.263.73c-.46.962-1.06 2.114-1.98 2.666-.368.233-.779.184-1.196.184.227.325.368.466.644 1.06.233.503.46 1.012.509 1.564.092.503-.05 1.146-.509 1.471-.46.276-1.011.184-1.428-.092-.417-.233-.785-.6-1.153-.968-.368-.417-.46-.595-.692-.92 0 .092 0 .092-.05.141-.232.46-.508.969-1.06 1.244-.779.417-1.882.368-2.85.276-.185 0-.185 0-.368-.049.232.233.275.233.508.552.779.877 1.564 1.931 1.747 3.034.092.51-.14 1.012-.324 1.429-.043.092-.043.092-.092.14.275.044.325.044.692.185.32.092.644.227.92.41.319.184.595.503.644.92.049.509-.227.969-.552 1.287-.325.374-.736.644-1.153.877-.226.135-.226.092-.46.184 0 .043 0 .043.05.043.692.184 1.47.46 1.98 1.011.367.368.46.828.6 1.245.276-.276.368-.417.877-.877.92-.735 1.974-1.563 3.035-1.747.502-.043.92.184 1.195.368.319.135.552.276.736.276.14 0 .367-.135.692-.276.32-.184.687-.417 1.196-.368 1.103.184 2.158 1.012 3.034 1.747.503.46.644.601.92.877.092-.417.227-.877.552-1.245.502-.551 1.33-.827 2.023-1.011v-.043c-.184-.092-.227-.043-.46-.184-.417-.233-.828-.509-1.153-.877-.319-.318-.6-.778-.552-1.287.043-.41.368-.736.644-.92.276-.177.644-.318.969-.41.319-.135.41-.135.643-.184-.042-.05-.042-.05-.091-.141-.184-.417-.374-.92-.325-1.428.183-1.104 1.011-2.158 1.747-3.035Z" fill="#E55241"/><path d="M11.537 17.557 11.077 24h1.84l-.46-6.443h-.92Z" fill="#E55241"/></svg>