<svg width="32" height="36" viewBox="0 0 32 36" fill="none" xmlns="http://www.w3.org/2000/svg">
<path d="M30.8002 11.7886C31.2139 11.3104 31.5634 10.961 31.5634 10.961C31.5634 10.961 31.3611 11.0345 31.0116 11.0345C28.7312 11.246 26.322 11.1081 25.1449 8.76326C25.0714 8.6897 25.1449 8.6897 25.0714 8.55177C24.722 9.02993 24.584 9.3058 24.0323 9.93109C23.5541 10.4828 23.0024 11.0345 22.3771 11.384C21.7518 11.7978 20.9242 11.9357 20.2346 11.5219C19.4805 11.0437 19.3334 10.0782 19.407 9.31499C19.5449 8.4874 19.8208 7.72418 20.1702 6.97015C20.584 6.069 20.7863 5.8575 21.1357 5.37934C20.584 5.37934 19.9679 5.4529 19.3426 5.10347C17.9633 4.27588 17.0713 2.54714 16.4461 1.10345C16.1702 0.487359 16.0323 0 16.0323 0C16.0323 0 15.8208 0.616097 15.6368 1.09426C14.9472 2.53795 14.046 4.26669 12.6667 5.09428C12.115 5.44371 11.4989 5.37014 10.8736 5.37014C11.2138 5.8575 11.4253 6.069 11.8391 6.96096C12.1886 7.71498 12.5288 8.47821 12.6023 9.3058C12.7403 10.0598 12.5288 11.0253 11.8391 11.5127C11.1495 11.9265 10.3219 11.7886 9.69659 11.3748C9.0713 11.0253 8.51957 10.4736 7.96784 9.92189C7.41612 9.2966 7.27818 9.02993 6.92876 8.54257C6.92876 8.68051 6.92876 8.68051 6.85519 8.75407C6.50577 9.44373 6.09197 10.2069 5.26438 10.6207C4.09656 11.246 2.44138 11.1725 0.988495 11.0345C0.712631 11.0345 0.712631 11.0345 0.436768 10.961C0.786195 11.3104 0.850563 11.3104 1.19999 11.7886C2.36781 13.1035 3.54483 14.6851 3.82069 16.3403C3.95863 17.1035 3.6092 17.8576 3.33333 18.4829C3.26897 18.6208 3.26897 18.6208 3.1954 18.6943C3.6092 18.7587 3.68276 18.7587 4.23449 18.9702C4.71265 19.1081 5.20001 19.3104 5.61381 19.5863C6.09197 19.8622 6.50577 20.3403 6.57933 20.9656C6.65289 21.7288 6.2391 22.4185 5.75174 22.8967C5.26438 23.4576 4.64828 23.8622 4.02299 24.2116C3.68276 24.4139 3.68276 24.3496 3.33333 24.4875C3.33333 24.5518 3.33333 24.5519 3.4069 24.5519C4.44598 24.8277 5.61381 25.2415 6.37703 26.0691C6.92876 26.6208 7.06669 27.3105 7.27818 27.9358C7.69198 27.522 7.82991 27.3105 8.59313 26.6208C9.97245 25.5174 11.5541 24.276 13.1449 24.0001C13.8989 23.9358 14.5242 24.276 14.938 24.5519C15.4162 24.7542 15.7656 24.9656 16.0415 24.9656C16.2529 24.9656 16.5932 24.7633 17.0805 24.5519C17.5587 24.276 18.1104 23.9266 18.8736 24.0001C20.5288 24.276 22.1104 25.5174 23.4254 26.6208C24.1794 27.3105 24.3909 27.522 24.8047 27.9358C24.9426 27.3105 25.1449 26.6208 25.6323 26.0691C26.3863 25.2415 27.6277 24.8277 28.6668 24.5519C28.6668 24.4875 28.6668 24.4875 28.6668 24.4875C28.3909 24.3496 28.3266 24.4231 27.9771 24.2116C27.3519 23.8622 26.7358 23.4484 26.2484 22.8967C25.7702 22.4185 25.3472 21.7288 25.4208 20.9656C25.4852 20.3495 25.9725 19.8622 26.3863 19.5863C26.8001 19.3196 27.3519 19.1081 27.8392 18.9702C28.3174 18.7679 28.4553 18.7679 28.8047 18.6943C28.7404 18.6208 28.7404 18.6208 28.6668 18.4829C28.3909 17.8576 28.1059 17.1035 28.1794 16.3403C28.4553 14.6851 29.6967 13.1035 30.8002 11.7886Z" fill="#E55241"/>
<path d="M15.3059 26.3356L14.6162 36H17.3749L16.6852 26.3356H15.3059Z" fill="#E55241"/>
</svg>
