<svg width="193" height="62" viewBox="0 0 193 62" fill="none" xmlns="http://www.w3.org/2000/svg">
<path d="M0.5 2.93331C0.5 1.62725 1.54415 0.770996 2.5669 0.770996C3.51532 0.770996 4.39175 1.55365 4.63356 2.9729C4.6253 3.64418 4.40698 4.16481 4.06796 4.51643C3.72389 4.8733 3.21774 5.09561 2.5669 5.09561C1.35121 5.09561 0.5 4.03924 0.5 2.93331Z" fill="white" stroke="white"/>
<path d="M21.8054 2.93331C21.8054 1.62726 22.8496 0.770996 23.8724 0.770996C24.8207 0.770996 25.6971 1.5535 25.939 2.97249C25.9184 4.25645 24.8849 5.09561 23.8724 5.09561C22.6566 5.09561 21.8054 4.03923 21.8054 2.93331Z" fill="white" stroke="white"/>
<path d="M42.8541 2.93331C42.8541 1.62726 43.8983 0.770996 44.9211 0.770996C45.5719 0.770996 46.0781 0.993314 46.4222 1.35018C46.7678 1.70868 46.988 2.24288 46.988 2.93331C46.988 4.23935 45.9439 5.09561 44.9211 5.09561C43.7053 5.09561 42.8541 4.03923 42.8541 2.93331Z" fill="white" stroke="white"/>
<path d="M64.1597 2.93331C64.1597 1.62725 65.2038 0.770996 66.2266 0.770996C66.8774 0.770996 67.3836 0.993312 67.7276 1.35018C68.0733 1.70868 68.2935 2.24288 68.2935 2.93331C68.2935 4.23936 67.2493 5.09561 66.2266 5.09561C65.0109 5.09561 64.1597 4.03924 64.1597 2.93331Z" fill="white" stroke="white"/>
<path d="M85.4651 2.93331C85.4651 1.62726 86.5093 0.770996 87.532 0.770996C88.1829 0.770996 88.689 0.993314 89.0331 1.35018C89.3788 1.70868 89.599 2.24288 89.599 2.93331C89.599 4.23935 88.5548 5.09561 87.532 5.09561C86.3163 5.09561 85.4651 4.03923 85.4651 2.93331Z" fill="white" stroke="white"/>
<path d="M106.771 2.93331C106.771 1.62726 107.815 0.770996 108.837 0.770996C109.488 0.770996 109.994 0.993314 110.339 1.35018C110.684 1.70868 110.904 2.24288 110.904 2.93331C110.904 4.23935 109.86 5.09561 108.837 5.09561C107.622 5.09561 106.771 4.03923 106.771 2.93331Z" fill="white" stroke="white"/>
<path d="M128.076 2.93331C128.076 1.62725 129.12 0.770996 130.143 0.770996C131.166 0.770996 132.21 1.62725 132.21 2.93331C132.21 4.23936 131.166 5.09561 130.143 5.09561C128.927 5.09561 128.076 4.03924 128.076 2.93331Z" fill="white" stroke="white"/>
<path d="M149.381 2.93331C149.381 1.62726 150.426 0.770996 151.448 0.770996C152.471 0.770996 153.515 1.62726 153.515 2.93331C153.515 4.23935 152.471 5.09561 151.448 5.09561C150.233 5.09561 149.381 4.03923 149.381 2.93331Z" fill="white" stroke="white"/>
<path d="M170.687 2.93331C170.687 1.62725 171.731 0.770996 172.754 0.770996C173.777 0.770996 174.821 1.62725 174.821 2.93331C174.821 4.23936 173.777 5.09561 172.754 5.09561C171.538 5.09561 170.687 4.03924 170.687 2.93331Z" fill="white" stroke="white"/>
<path d="M191.992 2.93331C191.992 1.62725 193.037 0.770996 194.059 0.770996C195.082 0.770996 196.126 1.62725 196.126 2.93331C196.126 4.23936 195.082 5.09561 194.059 5.09561C192.844 5.09561 191.992 4.03924 191.992 2.93331Z" fill="white" stroke="white"/>
<path d="M0.5 21.5541C0.5 20.2481 1.54414 19.3919 2.5669 19.3919C3.02646 19.3919 3.47844 19.6302 3.86373 20.0583C4.23847 20.4747 4.51554 21.0365 4.63345 21.602C4.62351 22.2692 4.4056 22.787 4.06797 23.1372C3.72389 23.4941 3.21775 23.7164 2.5669 23.7164C1.3512 23.7164 0.5 22.66 0.5 21.5541Z" fill="white" stroke="white"/>
<path d="M21.8054 21.5541C21.8054 20.2482 22.8496 19.3919 23.8724 19.3919C24.3319 19.3919 24.7839 19.6302 25.1692 20.0583C25.5439 20.4746 25.8209 21.0361 25.9389 21.6015C25.914 22.8808 24.8828 23.7164 23.8724 23.7164C22.6566 23.7164 21.8054 22.66 21.8054 21.5541Z" fill="white" stroke="white"/>
<path d="M42.8541 21.5541C42.8541 20.2482 43.8983 19.3919 44.9211 19.3919C46.1368 19.3919 46.988 20.4483 46.988 21.5541C46.988 22.8601 45.9439 23.7164 44.9211 23.7164C43.7053 23.7164 42.8541 22.66 42.8541 21.5541Z" fill="white" stroke="white"/>
<path d="M64.1597 21.5541C64.1597 20.2481 65.2038 19.3919 66.2266 19.3919C67.4423 19.3919 68.2935 20.4483 68.2935 21.5541C68.2935 22.8601 67.2493 23.7164 66.2266 23.7164C65.0109 23.7164 64.1597 22.66 64.1597 21.5541Z" fill="white" stroke="white"/>
<path d="M85.4651 21.5541C85.4651 20.2482 86.5092 19.3919 87.532 19.3919C88.7478 19.3919 89.599 20.4483 89.599 21.5541C89.599 22.8601 88.5548 23.7164 87.532 23.7164C86.3163 23.7164 85.4651 22.66 85.4651 21.5541Z" fill="white" stroke="white"/>
<path d="M106.771 21.5541C106.771 20.2482 107.815 19.3919 108.837 19.3919C110.053 19.3919 110.904 20.4483 110.904 21.5541C110.904 22.8601 109.86 23.7164 108.837 23.7164C107.622 23.7164 106.771 22.66 106.771 21.5541Z" fill="white" stroke="white"/>
<path d="M128.076 21.5541C128.076 20.2481 129.12 19.3919 130.143 19.3919C130.616 19.3919 131.135 19.6425 131.548 20.0709C131.96 20.4982 132.21 21.0449 132.21 21.5541C132.21 22.8601 131.166 23.7164 130.143 23.7164C128.927 23.7164 128.076 22.66 128.076 21.5541Z" fill="white" stroke="white"/>
<path d="M149.381 21.5541C149.381 20.2482 150.426 19.3919 151.448 19.3919C151.921 19.3919 152.44 19.6425 152.853 20.0709C153.265 20.4982 153.515 21.0449 153.515 21.5541C153.515 22.8601 152.471 23.7164 151.448 23.7164C150.233 23.7164 149.381 22.66 149.381 21.5541Z" fill="white" stroke="white"/>
<path d="M170.687 21.5541C170.687 20.2481 171.731 19.3919 172.754 19.3919C173.226 19.3919 173.746 19.6425 174.159 20.0709C174.571 20.4982 174.821 21.0449 174.821 21.5541C174.821 22.8601 173.777 23.7164 172.754 23.7164C171.538 23.7164 170.687 22.66 170.687 21.5541Z" fill="white" stroke="white"/>
<path d="M191.992 21.5541C191.992 20.2481 193.037 19.3919 194.059 19.3919C194.532 19.3919 195.051 19.6425 195.464 20.0709C195.876 20.4982 196.126 21.0449 196.126 21.5541C196.126 22.8601 195.082 23.7164 194.059 23.7164C192.844 23.7164 191.992 22.66 191.992 21.5541Z" fill="white" stroke="white"/>
<path d="M4.63381 40.4459C4.63381 41.6574 3.69138 42.6082 2.5669 42.6082C1.44243 42.6082 0.5 41.6574 0.5 40.4459C0.5 39.2343 1.44243 38.2836 2.5669 38.2836C3.69138 38.2836 4.63381 39.2343 4.63381 40.4459Z" fill="white" stroke="white"/>
<path d="M25.9393 40.4459C25.9393 41.6574 24.9969 42.6082 23.8724 42.6082C22.7479 42.6082 21.8054 41.6574 21.8054 40.4459C21.8054 39.2343 22.7479 38.2836 23.8724 38.2836C24.9969 38.2836 25.9393 39.2343 25.9393 40.4459Z" fill="white" stroke="white"/>
<path d="M42.8541 40.4459C42.8541 39.1398 43.8983 38.2836 44.9211 38.2836C45.5719 38.2836 46.0781 38.5059 46.4222 38.8628C46.7678 39.2213 46.988 39.7555 46.988 40.4459C46.988 41.7519 45.9439 42.6082 44.9211 42.6082C44.2702 42.6082 43.7641 42.3859 43.42 42.029C43.0743 41.6705 42.8541 41.1363 42.8541 40.4459Z" fill="white" stroke="white"/>
<path d="M64.1597 40.4459C64.1597 39.1398 65.2038 38.2836 66.2266 38.2836C66.8774 38.2836 67.3836 38.5059 67.7276 38.8627C68.0733 39.2213 68.2935 39.7555 68.2935 40.4459C68.2935 41.7519 67.2493 42.6082 66.2266 42.6082C65.5757 42.6082 65.0696 42.3859 64.7255 42.029C64.3799 41.6705 64.1597 41.1363 64.1597 40.4459Z" fill="white" stroke="white"/>
<path d="M85.4651 40.4459C85.4651 39.1398 86.5093 38.2836 87.532 38.2836C88.1829 38.2836 88.689 38.5059 89.0331 38.8628C89.3788 39.2213 89.599 39.7555 89.599 40.4459C89.599 41.7519 88.5548 42.6082 87.532 42.6082C86.8812 42.6082 86.375 42.3859 86.0309 42.029C85.6853 41.6705 85.4651 41.1363 85.4651 40.4459Z" fill="white" stroke="white"/>
<path d="M106.771 40.4459C106.771 39.1398 107.815 38.2836 108.837 38.2836C109.488 38.2836 109.994 38.5059 110.339 38.8628C110.684 39.2213 110.904 39.7555 110.904 40.4459C110.904 41.7519 109.86 42.6082 108.837 42.6082C108.187 42.6082 107.68 42.3859 107.336 42.029C106.991 41.6705 106.771 41.1363 106.771 40.4459Z" fill="white" stroke="white"/>
<path d="M128.076 40.4459C128.076 39.1398 129.12 38.2836 130.143 38.2836C131.166 38.2836 132.21 39.1398 132.21 40.4459C132.21 41.7519 131.166 42.6082 130.143 42.6082C129.492 42.6082 128.986 42.3859 128.642 42.029C128.296 41.6705 128.076 41.1363 128.076 40.4459Z" fill="white" stroke="white"/>
<path d="M149.381 40.4459C149.381 39.1398 150.426 38.2836 151.448 38.2836C152.471 38.2836 153.515 39.1398 153.515 40.4459C153.515 41.7519 152.471 42.6082 151.448 42.6082C150.798 42.6082 150.291 42.3859 149.947 42.029C149.602 41.6705 149.381 41.1363 149.381 40.4459Z" fill="white" stroke="white"/>
<path d="M170.687 40.4459C170.687 39.1398 171.731 38.2836 172.754 38.2836C173.777 38.2836 174.821 39.1398 174.821 40.4459C174.821 41.7519 173.777 42.6082 172.754 42.6082C172.103 42.6082 171.597 42.3859 171.253 42.029C170.907 41.6705 170.687 41.1363 170.687 40.4459Z" fill="white" stroke="white"/>
<path d="M191.992 40.4459C191.992 39.1398 193.037 38.2836 194.059 38.2836C195.082 38.2836 196.126 39.1398 196.126 40.4459C196.126 41.7519 195.082 42.6082 194.059 42.6082C193.408 42.6082 192.902 42.3859 192.558 42.029C192.213 41.6705 191.992 41.1363 191.992 40.4459Z" fill="white" stroke="white"/>
<path d="M4.63381 59.0716C4.63381 60.2832 3.69138 61.2339 2.5669 61.2339C1.44243 61.2339 0.5 60.2832 0.5 59.0716C0.5 57.86 1.44243 56.9093 2.5669 56.9093C3.69138 56.9093 4.63381 57.86 4.63381 59.0716Z" fill="white" stroke="white"/>
<path d="M25.9393 59.0716C25.9393 60.2832 24.9969 61.2339 23.8724 61.2339C22.7479 61.2339 21.8054 60.2832 21.8054 59.0716C21.8054 57.8601 22.7479 56.9093 23.8724 56.9093C24.9969 56.9093 25.9393 57.8601 25.9393 59.0716Z" fill="white" stroke="white"/>
<path d="M42.8541 59.3377C42.8541 58.0317 43.8983 57.1755 44.9211 57.1755C45.5719 57.1755 46.0781 57.3978 46.4222 57.7547C46.7678 58.1131 46.988 58.6473 46.988 59.3377C46.988 60.6438 45.9439 61.5 44.9211 61.5C43.7053 61.5 42.8541 60.4436 42.8541 59.3377Z" fill="white" stroke="white"/>
<path d="M64.1597 59.3377C64.1597 58.0317 65.2038 57.1755 66.2266 57.1755C66.8774 57.1755 67.3836 57.3978 67.7276 57.7546C68.0733 58.1131 68.2935 58.6473 68.2935 59.3377C68.2935 60.6438 67.2493 61.5 66.2266 61.5C65.0109 61.5 64.1597 60.4437 64.1597 59.3377Z" fill="white" stroke="white"/>
<path d="M85.4651 59.3377C85.4651 58.0317 86.5092 57.1755 87.532 57.1755C88.1829 57.1755 88.6891 57.3978 89.0331 57.7547C89.3788 58.1131 89.599 58.6473 89.599 59.3377C89.599 60.6438 88.5548 61.5 87.532 61.5C86.3163 61.5 85.4651 60.4436 85.4651 59.3377Z" fill="white" stroke="white"/>
<path d="M106.771 59.3377C106.771 58.0317 107.815 57.1755 108.837 57.1755C109.488 57.1755 109.994 57.3978 110.339 57.7547C110.684 58.1131 110.904 58.6473 110.904 59.3377C110.904 60.6438 109.86 61.5 108.837 61.5C107.622 61.5 106.771 60.4436 106.771 59.3377Z" fill="white" stroke="white"/>
<path d="M128.076 59.3377C128.076 58.0317 129.12 57.1755 130.143 57.1755C131.166 57.1755 132.21 58.0317 132.21 59.3377C132.21 60.6438 131.166 61.5 130.143 61.5C128.927 61.5 128.076 60.4437 128.076 59.3377Z" fill="white" stroke="white"/>
<path d="M149.381 59.3377C149.381 58.0317 150.426 57.1755 151.448 57.1755C152.471 57.1755 153.515 58.0317 153.515 59.3377C153.515 60.6438 152.471 61.5 151.448 61.5C150.233 61.5 149.381 60.4436 149.381 59.3377Z" fill="white" stroke="white"/>
<path d="M170.687 59.3377C170.687 58.0317 171.731 57.1755 172.754 57.1755C173.777 57.1755 174.821 58.0317 174.821 59.3377C174.821 60.6438 173.777 61.5 172.754 61.5C171.538 61.5 170.687 60.4437 170.687 59.3377Z" fill="white" stroke="white"/>
<path d="M191.992 59.3377C191.992 58.0317 193.037 57.1755 194.059 57.1755C195.082 57.1755 196.126 58.0317 196.126 59.3377C196.126 60.6438 195.082 61.5 194.059 61.5C192.844 61.5 191.992 60.4437 191.992 59.3377Z" fill="white" stroke="white"/>
</svg>
