<svg width="46" height="211" viewBox="0 0 46 211" fill="none" xmlns="http://www.w3.org/2000/svg">
<path d="M1.9252 209.783C1.16202 209.783 0.5 209.12 0.5 208.409C0.5 207.697 1.16202 207.034 1.9252 207.034C2.68838 207.034 3.3504 207.697 3.3504 208.409C3.3504 209.12 2.68838 209.783 1.9252 209.783Z" fill="#E55241" stroke="#E55241"/>
<path d="M1.9252 193.925C1.16211 193.925 0.5 193.261 0.5 192.55C0.5 191.734 1.13968 191.174 1.9252 191.174C2.68829 191.174 3.3504 191.838 3.3504 192.55C3.3504 193.261 2.68829 193.925 1.9252 193.925Z" fill="#E55241" stroke="#E55241"/>
<path d="M1.9252 178.065C1.162 178.065 0.5 177.401 0.5 176.69C0.5 175.875 1.13956 175.315 1.9252 175.315C2.68841 175.315 3.3504 175.979 3.3504 176.69C3.3504 177.401 2.68841 178.065 1.9252 178.065Z" fill="#E55241" stroke="#E55241"/>
<path d="M1.9252 162.208C1.16229 162.208 0.5 161.544 0.5 160.832C0.5 160.016 1.13986 159.456 1.9252 159.456C2.68811 159.456 3.3504 160.12 3.3504 160.832C3.3504 161.544 2.68811 162.208 1.9252 162.208Z" fill="#E55241" stroke="#E55241"/>
<path d="M1.9252 146.346C1.162 146.346 0.5 145.683 0.5 144.971C0.5 144.156 1.13957 143.597 1.9252 143.597C2.6884 143.597 3.3504 144.26 3.3504 144.971C3.3504 145.683 2.6884 146.346 1.9252 146.346Z" fill="#E55241" stroke="#E55241"/>
<path d="M1.9252 130.362C1.16203 130.362 0.5 129.699 0.5 128.987C0.5 128.276 1.16203 127.612 1.9252 127.612C2.68837 127.612 3.3504 128.276 3.3504 128.987C3.3504 129.699 2.68837 130.362 1.9252 130.362Z" fill="#E55241" stroke="#E55241"/>
<path d="M1.9252 114.503C1.16204 114.503 0.5 113.84 0.5 113.128C0.5 112.417 1.16204 111.753 1.9252 111.753C2.68836 111.753 3.3504 112.417 3.3504 113.128C3.3504 113.84 2.68836 114.503 1.9252 114.503Z" fill="#E55241" stroke="#E55241"/>
<path d="M1.9252 98.6437C1.16202 98.6437 0.5 97.9802 0.5 97.2688C0.5 96.5574 1.16202 95.8939 1.9252 95.8939C2.68838 95.8939 3.3504 96.5574 3.3504 97.2688C3.3504 97.9802 2.68838 98.6437 1.9252 98.6437Z" fill="#E55241" stroke="#E55241"/>
<path d="M1.9252 82.788C1.16245 82.788 0.5 82.1241 0.5 81.4113C0.5 80.6985 1.16245 80.0347 1.9252 80.0347C2.68795 80.0347 3.3504 80.6985 3.3504 81.4113C3.3504 82.1241 2.68795 82.788 1.9252 82.788Z" fill="#E55241" stroke="#E55241"/>
<path d="M1.9252 66.9251C1.162 66.9251 0.5 66.2616 0.5 65.5502C0.5 64.8388 1.162 64.1754 1.9252 64.1754C2.6884 64.1754 3.3504 64.8388 3.3504 65.5502C3.3504 66.2616 2.6884 66.9251 1.9252 66.9251Z" fill="#E55241" stroke="#E55241"/>
<path d="M1.9252 51.066C1.16202 51.066 0.5 50.4025 0.5 49.6911C0.5 48.9797 1.16202 48.3162 1.9252 48.3162C2.68838 48.3162 3.3504 48.9797 3.3504 49.6911C3.3504 50.4025 2.68838 51.066 1.9252 51.066Z" fill="#E55241" stroke="#E55241"/>
<path d="M1.9252 35.2067C1.16202 35.2067 0.5 34.5432 0.5 33.8318C0.5 33.1203 1.16202 32.4568 1.9252 32.4568C2.68838 32.4568 3.3504 33.1203 3.3504 33.8318C3.3504 34.5432 2.68838 35.2067 1.9252 35.2067Z" fill="#E55241" stroke="#E55241"/>
<path d="M1.9252 19.3489C1.16219 19.3489 0.5 18.6852 0.5 17.9733C0.5 17.2613 1.16219 16.5977 1.9252 16.5977C2.68821 16.5977 3.3504 17.2613 3.3504 17.9733C3.3504 18.6852 2.68821 19.3489 1.9252 19.3489Z" fill="#E55241" stroke="#E55241"/>
<path d="M1.9252 0.738281C2.68836 0.738281 3.3504 1.4018 3.3504 2.11331C3.3504 2.82482 2.68836 3.48834 1.9252 3.48834C1.16204 3.48834 0.5 2.82482 0.5 2.11331C0.5 1.4018 1.16204 0.738281 1.9252 0.738281Z" fill="#E55241" stroke="#E55241"/>
<path d="M15.9149 209.783C15.1518 209.783 14.4897 209.12 14.4897 208.409C14.4897 207.697 15.1518 207.034 15.9149 207.034C16.6781 207.034 17.3401 207.697 17.3401 208.409C17.3401 209.12 16.6781 209.783 15.9149 209.783Z" fill="#E55241" stroke="#E55241"/>
<path d="M15.9149 193.925C15.1519 193.925 14.4897 193.261 14.4897 192.55C14.4897 191.734 15.1294 191.174 15.9149 191.174C16.678 191.174 17.3401 191.838 17.3401 192.55C17.3401 193.261 16.678 193.925 15.9149 193.925Z" fill="#E55241" stroke="#E55241"/>
<path d="M15.9149 178.065C15.1517 178.065 14.4897 177.401 14.4897 176.69C14.4897 175.875 15.1293 175.315 15.9149 175.315C16.6782 175.315 17.3401 175.979 17.3401 176.69C17.3401 177.401 16.6782 178.065 15.9149 178.065Z" fill="#E55241" stroke="#E55241"/>
<path d="M15.9149 162.208C15.152 162.208 14.4897 161.544 14.4897 160.832C14.4897 160.016 15.1296 159.456 15.9149 159.456C16.6779 159.456 17.3401 160.12 17.3401 160.832C17.3401 161.544 16.6779 162.208 15.9149 162.208Z" fill="#E55241" stroke="#E55241"/>
<path d="M15.9149 146.346C15.1517 146.346 14.4897 145.683 14.4897 144.971C14.4897 144.156 15.1293 143.597 15.9149 143.597C16.6781 143.597 17.3401 144.26 17.3401 144.971C17.3401 145.683 16.6781 146.346 15.9149 146.346Z" fill="#E55241" stroke="#E55241"/>
<path d="M15.9149 130.362C15.1518 130.362 14.4897 129.699 14.4897 128.987C14.4897 128.276 15.1518 127.612 15.9149 127.612C16.6781 127.612 17.3401 128.276 17.3401 128.987C17.3401 129.699 16.6781 130.362 15.9149 130.362Z" fill="#E55241" stroke="#E55241"/>
<path d="M15.9149 114.503C15.1518 114.503 14.4897 113.84 14.4897 113.128C14.4897 112.417 15.1518 111.753 15.9149 111.753C16.6781 111.753 17.3401 112.417 17.3401 113.128C17.3401 113.84 16.6781 114.503 15.9149 114.503Z" fill="#E55241" stroke="#E55241"/>
<path d="M15.9149 98.6437C15.1518 98.6437 14.4897 97.9802 14.4897 97.2688C14.4897 96.5574 15.1518 95.8939 15.9149 95.8939C16.6781 95.8939 17.3401 96.5574 17.3401 97.2688C17.3401 97.9802 16.6781 98.6437 15.9149 98.6437Z" fill="#E55241" stroke="#E55241"/>
<path d="M15.9149 82.788C15.1522 82.788 14.4897 82.1241 14.4897 81.4113C14.4897 80.6985 15.1522 80.0347 15.9149 80.0347C16.6777 80.0347 17.3401 80.6985 17.3401 81.4113C17.3401 82.1241 16.6777 82.788 15.9149 82.788Z" fill="#E55241" stroke="#E55241"/>
<path d="M15.9149 66.9251C15.1517 66.9251 14.4897 66.2616 14.4897 65.5502C14.4897 64.8388 15.1517 64.1754 15.9149 64.1754C16.6781 64.1754 17.3401 64.8388 17.3401 65.5502C17.3401 66.2616 16.6781 66.9251 15.9149 66.9251Z" fill="#E55241" stroke="#E55241"/>
<path d="M15.9149 51.066C15.1518 51.066 14.4897 50.4025 14.4897 49.6911C14.4897 48.9797 15.1518 48.3162 15.9149 48.3162C16.6781 48.3162 17.3401 48.9797 17.3401 49.6911C17.3401 50.4025 16.6781 51.066 15.9149 51.066Z" fill="#E55241" stroke="#E55241"/>
<path d="M15.9149 35.2067C15.1518 35.2067 14.4897 34.5432 14.4897 33.8318C14.4897 33.1203 15.1518 32.4568 15.9149 32.4568C16.6781 32.4568 17.3401 33.1203 17.3401 33.8318C17.3401 34.5432 16.6781 35.2067 15.9149 35.2067Z" fill="#E55241" stroke="#E55241"/>
<path d="M15.9149 19.3489C15.1519 19.3489 14.4897 18.6852 14.4897 17.9733C14.4897 17.2613 15.1519 16.5977 15.9149 16.5977C16.678 16.5977 17.3401 17.2613 17.3401 17.9733C17.3401 18.6852 16.678 19.3489 15.9149 19.3489Z" fill="#E55241" stroke="#E55241"/>
<path d="M15.9149 3.48834C15.1518 3.48834 14.4897 2.82482 14.4897 2.11331C14.4897 1.4018 15.1518 0.738281 15.9149 0.738281C16.6781 0.738281 17.3401 1.4018 17.3401 2.11331C17.3401 2.82482 16.6781 3.48834 15.9149 3.48834Z" fill="#E55241" stroke="#E55241"/>
<path d="M29.7763 209.783C29.0131 209.783 28.3511 209.12 28.3511 208.409C28.3511 207.697 29.0131 207.034 29.7763 207.034C30.5394 207.034 31.2014 207.697 31.2014 208.409C31.2014 209.12 30.5394 209.783 29.7763 209.783Z" fill="#E55241" stroke="#E55241"/>
<path d="M29.7763 193.925C29.0132 193.925 28.3511 193.261 28.3511 192.55C28.3511 191.734 28.9907 191.174 29.7763 191.174C30.5393 191.174 31.2014 191.838 31.2014 192.55C31.2014 193.261 30.5393 193.925 29.7763 193.925Z" fill="#E55241" stroke="#E55241"/>
<path d="M29.7763 178.065C29.0131 178.065 28.3511 177.401 28.3511 176.69C28.3511 175.875 28.9906 175.315 29.7763 175.315C30.5395 175.315 31.2014 175.979 31.2014 176.69C31.2014 177.401 30.5395 178.065 29.7763 178.065Z" fill="#E55241" stroke="#E55241"/>
<path d="M29.7763 162.208C29.0134 162.208 28.3511 161.544 28.3511 160.832C28.3511 160.016 28.9909 159.456 29.7763 159.456C30.5392 159.456 31.2014 160.12 31.2014 160.832C31.2014 161.544 30.5392 162.208 29.7763 162.208Z" fill="#E55241" stroke="#E55241"/>
<path d="M29.7763 146.346C29.0131 146.346 28.3511 145.683 28.3511 144.971C28.3511 144.156 28.9906 143.597 29.7763 143.597C30.5394 143.597 31.2014 144.26 31.2014 144.971C31.2014 145.683 30.5394 146.346 29.7763 146.346Z" fill="#E55241" stroke="#E55241"/>
<path d="M29.7763 130.362C29.0131 130.362 28.3511 129.699 28.3511 128.987C28.3511 128.276 29.0131 127.612 29.7763 127.612C30.5394 127.612 31.2014 128.276 31.2014 128.987C31.2014 129.699 30.5394 130.362 29.7763 130.362Z" fill="#E55241" stroke="#E55241"/>
<path d="M29.7763 114.503C29.0131 114.503 28.3511 113.84 28.3511 113.128C28.3511 112.417 29.0131 111.753 29.7763 111.753C30.5394 111.753 31.2014 112.417 31.2014 113.128C31.2014 113.84 30.5394 114.503 29.7763 114.503Z" fill="#E55241" stroke="#E55241"/>
<path d="M29.7763 98.6437C29.0131 98.6437 28.3511 97.9802 28.3511 97.2688C28.3511 96.5574 29.0131 95.8939 29.7763 95.8939C30.5394 95.8939 31.2014 96.5574 31.2014 97.2688C31.2014 97.9802 30.5394 98.6437 29.7763 98.6437Z" fill="#E55241" stroke="#E55241"/>
<path d="M29.7763 82.788C29.0135 82.788 28.3511 82.1241 28.3511 81.4113C28.3511 80.6985 29.0135 80.0347 29.7763 80.0347C30.539 80.0347 31.2014 80.6985 31.2014 81.4113C31.2014 82.1241 30.539 82.788 29.7763 82.788Z" fill="#E55241" stroke="#E55241"/>
<path d="M29.7763 66.9251C29.0131 66.9251 28.3511 66.2616 28.3511 65.5502C28.3511 64.8388 29.0131 64.1754 29.7763 64.1754C30.5394 64.1754 31.2014 64.8388 31.2014 65.5502C31.2014 66.2616 30.5394 66.9251 29.7763 66.9251Z" fill="#E55241" stroke="#E55241"/>
<path d="M29.7763 51.066C29.0131 51.066 28.3511 50.4025 28.3511 49.6911C28.3511 48.9797 29.0131 48.3162 29.7763 48.3162C30.5394 48.3162 31.2014 48.9797 31.2014 49.6911C31.2014 50.4025 30.5394 51.066 29.7763 51.066Z" fill="#E55241" stroke="#E55241"/>
<path d="M29.7763 35.2067C29.0131 35.2067 28.3511 34.5432 28.3511 33.8318C28.3511 33.1203 29.0131 32.4568 29.7763 32.4568C30.5394 32.4568 31.2014 33.1203 31.2014 33.8318C31.2014 34.5432 30.5394 35.2067 29.7763 35.2067Z" fill="#E55241" stroke="#E55241"/>
<path d="M29.7763 19.3489C29.0133 19.3489 28.3511 18.6852 28.3511 17.9733C28.3511 17.2613 29.0133 16.5977 29.7763 16.5977C30.5393 16.5977 31.2014 17.2613 31.2014 17.9733C31.2014 18.6852 30.5393 19.3489 29.7763 19.3489Z" fill="#E55241" stroke="#E55241"/>
<path d="M29.7762 3.48834C29.0131 3.48834 28.3511 2.82483 28.3511 2.11331C28.3511 1.40179 29.0131 0.738281 29.7762 0.738281C30.5394 0.738281 31.2014 1.40179 31.2014 2.11331C31.2014 2.82483 30.5394 3.48834 29.7762 3.48834Z" fill="#E55241" stroke="#E55241"/>
<path d="M43.7663 209.783C43.0031 209.783 42.3411 209.12 42.3411 208.409C42.3411 207.697 43.0031 207.034 43.7663 207.034C44.5294 207.034 45.1915 207.697 45.1915 208.409C45.1915 209.12 44.5294 209.783 43.7663 209.783Z" fill="#E55241" stroke="#E55241"/>
<path d="M43.7663 193.925C43.0032 193.925 42.3411 193.261 42.3411 192.55C42.3411 191.734 42.9807 191.174 43.7663 191.174C44.5294 191.174 45.1915 191.838 45.1915 192.55C45.1915 193.261 44.5294 193.925 43.7663 193.925Z" fill="#E55241" stroke="#E55241"/>
<path d="M43.7663 178.065C43.0031 178.065 42.3411 177.401 42.3411 176.69C42.3411 175.875 42.9806 175.315 43.7663 175.315C44.5295 175.315 45.1915 175.979 45.1915 176.69C45.1915 177.401 44.5295 178.065 43.7663 178.065Z" fill="#E55241" stroke="#E55241"/>
<path d="M43.7663 162.208C43.0034 162.208 42.3411 161.544 42.3411 160.832C42.3411 160.016 42.9809 159.456 43.7663 159.456C44.5292 159.456 45.1915 160.12 45.1915 160.832C45.1915 161.544 44.5292 162.208 43.7663 162.208Z" fill="#E55241" stroke="#E55241"/>
<path d="M43.7663 146.346C43.0031 146.346 42.3411 145.683 42.3411 144.971C42.3411 144.156 42.9806 143.597 43.7663 143.597C44.5295 143.597 45.1915 144.26 45.1915 144.971C45.1915 145.683 44.5295 146.346 43.7663 146.346Z" fill="#E55241" stroke="#E55241"/>
<path d="M43.7663 130.362C43.0031 130.362 42.3411 129.699 42.3411 128.987C42.3411 128.276 43.0031 127.612 43.7663 127.612C44.5294 127.612 45.1915 128.276 45.1915 128.987C45.1915 129.699 44.5294 130.362 43.7663 130.362Z" fill="#E55241" stroke="#E55241"/>
<path d="M43.7663 114.503C43.0031 114.503 42.3411 113.84 42.3411 113.128C42.3411 112.417 43.0031 111.753 43.7663 111.753C44.5294 111.753 45.1915 112.417 45.1915 113.128C45.1915 113.84 44.5294 114.503 43.7663 114.503Z" fill="#E55241" stroke="#E55241"/>
<path d="M43.7663 98.6437C43.0031 98.6437 42.3411 97.9802 42.3411 97.2688C42.3411 96.5574 43.0031 95.8939 43.7663 95.8939C44.5294 95.8939 45.1915 96.5574 45.1915 97.2688C45.1915 97.9802 44.5294 98.6437 43.7663 98.6437Z" fill="#E55241" stroke="#E55241"/>
<path d="M43.7663 82.788C43.0035 82.788 42.3411 82.1241 42.3411 81.4113C42.3411 80.6985 43.0035 80.0347 43.7663 80.0347C44.529 80.0347 45.1915 80.6985 45.1915 81.4113C45.1915 82.1241 44.529 82.788 43.7663 82.788Z" fill="#E55241" stroke="#E55241"/>
<path d="M43.7663 66.9251C43.0031 66.9251 42.3411 66.2616 42.3411 65.5502C42.3411 64.8388 43.0031 64.1754 43.7663 64.1754C44.5295 64.1754 45.1915 64.8388 45.1915 65.5502C45.1915 66.2616 44.5295 66.9251 43.7663 66.9251Z" fill="#E55241" stroke="#E55241"/>
<path d="M43.7663 51.066C43.0031 51.066 42.3411 50.4025 42.3411 49.6911C42.3411 48.9797 43.0031 48.3162 43.7663 48.3162C44.5294 48.3162 45.1915 48.9797 45.1915 49.6911C45.1915 50.4025 44.5294 51.066 43.7663 51.066Z" fill="#E55241" stroke="#E55241"/>
<path d="M43.7663 35.2067C43.0031 35.2067 42.3411 34.5432 42.3411 33.8318C42.3411 33.1203 43.0031 32.4568 43.7663 32.4568C44.5294 32.4568 45.1915 33.1203 45.1915 33.8318C45.1915 34.5432 44.5294 35.2067 43.7663 35.2067Z" fill="#E55241" stroke="#E55241"/>
<path d="M43.7663 19.3489C43.0033 19.3489 42.3411 18.6852 42.3411 17.9733C42.3411 17.2613 43.0033 16.5977 43.7663 16.5977C44.5293 16.5977 45.1915 17.2613 45.1915 17.9733C45.1915 18.6852 44.5293 19.3489 43.7663 19.3489Z" fill="#E55241" stroke="#E55241"/>
<path d="M43.7663 3.48834C43.0031 3.48834 42.3411 2.82482 42.3411 2.11331C42.3411 1.4018 43.0031 0.738281 43.7663 0.738281C44.5294 0.738281 45.1915 1.4018 45.1915 2.11331C45.1915 2.82482 44.5294 3.48834 43.7663 3.48834Z" fill="#E55241" stroke="#E55241"/>
</svg>
