<svg aria-hidden="true" style="position: absolute; width: 0; height: 0; overflow: hidden;" version="1.1" xmlns="http://www.w3.org/2000/svg" xmlns:xlink="http://www.w3.org/1999/xlink">
<defs>
<symbol id="icon-arrow-right" viewBox="0 0 32 32">
<path d="M27.609 15.057l-8-8-1.886 1.886 5.724 5.724h-16.781c-0.736 0-1.333 0.597-1.333 1.333s0.597 1.333 1.333 1.333h16.781l-5.724 5.724 1.886 1.886 8.943-8.943-0.943-0.943z"></path>
</symbol>
<symbol id="icon-arrow-right-greater" viewBox="0 0 32 32">
<path d="M0.444 16c0-0.295 0.117-0.577 0.325-0.786s0.491-0.325 0.786-0.325h26.207l-6.993-6.991c-0.209-0.209-0.326-0.492-0.326-0.787s0.117-0.578 0.326-0.787c0.209-0.209 0.492-0.326 0.787-0.326s0.578 0.117 0.787 0.326l8.889 8.889c0.103 0.103 0.186 0.226 0.242 0.361s0.085 0.28 0.085 0.426c0 0.146-0.029 0.291-0.085 0.426s-0.138 0.258-0.242 0.361l-8.889 8.889c-0.209 0.209-0.492 0.326-0.787 0.326s-0.578-0.117-0.787-0.326c-0.209-0.209-0.326-0.492-0.326-0.787s0.117-0.578 0.326-0.787l6.993-6.991h-26.207c-0.295 0-0.577-0.117-0.786-0.325s-0.325-0.491-0.325-0.786z"></path>
</symbol>
<symbol id="icon-bookmarks" viewBox="0 0 32 32">
<path d="M20 7h-12c-0.53 0.001-1.039 0.212-1.414 0.586s-0.586 0.883-0.586 1.414v19c0 0.184 0.051 0.364 0.146 0.521s0.233 0.284 0.396 0.368c0.163 0.084 0.347 0.122 0.53 0.108s0.359-0.077 0.509-0.184l6.418-4.585 6.42 4.585c0.15 0.107 0.326 0.17 0.509 0.184s0.367-0.024 0.53-0.108c0.163-0.084 0.3-0.211 0.396-0.368s0.146-0.337 0.146-0.521v-19c-0.001-0.53-0.212-1.039-0.586-1.414s-0.883-0.586-1.414-0.586zM20 26.057l-5.42-3.871c-0.17-0.121-0.373-0.186-0.581-0.186s-0.412 0.065-0.581 0.186l-5.418 3.87v-17.057h12v17.057zM26 5v19c0 0.265-0.105 0.52-0.293 0.707s-0.442 0.293-0.707 0.293-0.52-0.105-0.707-0.293c-0.187-0.188-0.293-0.442-0.293-0.707v-19h-13c-0.265 0-0.52-0.105-0.707-0.293s-0.293-0.442-0.293-0.707c0-0.265 0.105-0.52 0.293-0.707s0.442-0.293 0.707-0.293h13c0.53 0.001 1.039 0.212 1.414 0.586s0.586 0.883 0.586 1.414z"></path>
</symbol>
<symbol id="icon-checked" viewBox="0 0 32 32">
<path d="M11.429 27.429l-11.429-11.337 3.634-3.52 7.794 7.657 16.937-16.8 3.634 3.611-20.571 20.389z"></path>
</symbol>
<symbol id="icon-circle-list" viewBox="0 0 32 32">
<path d="M30 16c0 7.732-6.268 14-14 14s-14-6.268-14-14c0-7.732 6.268-14 14-14s14 6.268 14 14z"></path>
</symbol>
<symbol id="icon-clouds" viewBox="0 0 32 32">
<path d="M32 14.122c0-2.586-1.894-4.739-4.368-5.143-0.777-3.385-3.807-5.848-7.355-5.848-3.174 0-6.003 2.002-7.084 4.939-3.689 0.843-6.621 3.776-7.395 7.556-3.266 0.419-5.798 3.216-5.798 6.594 0 3.666 2.982 6.648 6.648 6.648h17.458c3.666 0 6.648-2.982 6.648-6.648 0-1.376-0.42-2.655-1.139-3.717 1.466-0.94 2.384-2.568 2.384-4.382zM20.277 5.11c2.821 0 5.198 2.109 5.529 4.907l0.103 0.874h0.88c1.782 0 3.232 1.45 3.232 3.232 0 1.247-0.699 2.353-1.785 2.892-0.925-0.735-2.050-1.23-3.279-1.388-0.914-4.464-4.836-7.746-9.461-7.801 0.987-1.649 2.792-2.715 4.781-2.715zM24.107 26.89h-17.458c-2.574 0-4.669-2.094-4.669-4.669s2.095-4.669 4.669-4.669h0.88l0.103-0.874c0.463-3.919 3.793-6.874 7.746-6.874s7.283 2.955 7.746 6.874l0.103 0.874h0.88c2.575 0 4.669 2.094 4.669 4.669s-2.094 4.669-4.669 4.669z"></path>
</symbol>
<symbol id="icon-copyright" viewBox="0 0 32 32">
<path d="M17.989 14.011l1.326-1.326c-1.828-1.828-4.801-1.828-6.629 0s-1.828 4.801 0 6.629c0.914 0.914 2.114 1.371 3.314 1.371s2.401-0.457 3.314-1.371l-1.326-1.326c-1.097 1.096-2.881 1.096-3.978 0s-1.097-2.881 0-3.977c1.097-1.096 2.881-1.096 3.978 0z"></path>
<path d="M29.188 13.188c-1.222 0-2.264 0.784-2.651 1.875h-2.151c-0.18-1.625-0.824-3.112-1.796-4.326l1.479-1.479c1.024 0.49 2.32 0.332 3.202-0.55 1.097-1.097 1.097-2.881 0-3.978-1.099-1.099-2.878-1.099-3.977 0-0.864 0.864-1.047 2.156-0.549 3.201l-1.48 1.48c-1.214-0.972-2.701-1.615-4.326-1.796v-2.151c1.091-0.387 1.875-1.429 1.875-2.651 0-1.551-1.262-2.813-2.812-2.813s-2.812 1.262-2.812 2.813c0 1.222 0.784 2.264 1.875 2.651v2.151c-1.625 0.18-3.112 0.824-4.326 1.796l-1.48-1.479c0.498-1.045 0.315-2.336-0.549-3.201-1.097-1.097-2.881-1.096-3.978 0s-1.097 2.881 0 3.978c0.866 0.866 2.156 1.046 3.2 0.549l1.48 1.48c-0.972 1.214-1.615 2.701-1.796 4.326h-2.151c-0.387-1.091-1.429-1.875-2.651-1.875-1.551 0-2.813 1.262-2.813 2.812s1.262 2.812 2.813 2.812c1.222 0 2.264-0.784 2.651-1.875h2.151c0.18 1.625 0.824 3.112 1.796 4.326l-1.48 1.48c-1.045-0.498-2.336-0.315-3.2 0.549-1.097 1.097-1.097 2.881 0 3.977s2.881 1.096 3.978 0c0.864-0.864 1.047-2.155 0.549-3.201l1.48-1.479c1.214 0.972 2.701 1.615 4.326 1.796v2.151c-1.091 0.387-1.875 1.429-1.875 2.651 0 1.551 1.262 2.812 2.812 2.812s2.812-1.262 2.812-2.812c0-1.222-0.784-2.264-1.875-2.651v-2.151c1.625-0.18 3.112-0.824 4.326-1.796l1.48 1.479c-0.498 1.046-0.315 2.336 0.549 3.201 1.099 1.099 2.878 1.099 3.977 0 1.097-1.097 1.097-2.881 0-3.977-0.882-0.883-2.178-1.040-3.202-0.55l-1.479-1.479c0.972-1.214 1.615-2.701 1.796-4.326h2.151c0.387 1.091 1.429 1.875 2.651 1.875 1.551 0 2.812-1.262 2.812-2.812s-1.262-2.812-2.812-2.812zM24.618 6.056c0.366-0.366 0.959-0.366 1.326 0s0.367 0.959 0 1.326c-0.366 0.366-0.959 0.366-1.326 0s-0.366-0.959 0-1.326zM7.382 7.382c-0.365 0.365-0.96 0.366-1.326 0s-0.365-0.96 0-1.326c0.366-0.366 0.959-0.366 1.326 0s0.366 0.959 0 1.326zM2.813 16.938c-0.517 0-0.938-0.421-0.938-0.938s0.421-0.938 0.938-0.938c0.517 0 0.938 0.421 0.938 0.938s-0.421 0.938-0.938 0.938zM7.382 25.944c-0.366 0.366-0.959 0.366-1.326 0-0.365-0.366-0.365-0.96 0-1.326s0.96-0.366 1.326 0c0.366 0.366 0.366 0.959 0 1.326zM24.618 24.618c0.366-0.366 0.959-0.366 1.326 0s0.367 0.959 0 1.326c-0.366 0.366-0.959 0.366-1.326 0s-0.366-0.96 0-1.326zM16 1.875c0.517 0 0.938 0.421 0.938 0.938s-0.421 0.938-0.938 0.938c-0.517 0-0.938-0.421-0.938-0.938s0.421-0.938 0.938-0.938zM16 30.125c-0.517 0-0.938-0.421-0.938-0.938s0.421-0.938 0.938-0.938 0.938 0.421 0.938 0.938c0 0.517-0.421 0.938-0.938 0.938zM16 22.563c-3.619 0-6.563-2.944-6.563-6.563s2.944-6.563 6.563-6.563c3.619 0 6.563 2.944 6.563 6.563s-2.944 6.563-6.563 6.563zM29.188 16.938c-0.517 0-0.938-0.421-0.938-0.938s0.421-0.938 0.938-0.938c0.517 0 0.938 0.421 0.938 0.938s-0.421 0.938-0.938 0.938z"></path>
</symbol>
<symbol id="icon-copyright-alt" viewBox="0 0 32 32">
<path d="M15.904 31.974l0.154 0.026 0.154-0.026c6.939-1.157 12.029-7.228 12.029-14.262v-13.965h-6.288l-5.896-3.747-5.895 3.747h-6.288v13.965c0 7.034 5.090 13.106 12.029 14.262zM16.995 2.816l4.413 2.805h4.958v12.091c0 5.805-3.879 10.761-9.372 12.181v-5.518c4.211-0.468 7.497-4.048 7.497-8.382s-3.286-7.914-7.497-8.382v-4.794zM22.618 15.993c0 3.617-2.943 6.56-6.56 6.56s-6.56-2.943-6.56-6.56c0-3.617 2.943-6.56 6.56-6.56s6.56 2.943 6.56 6.56zM5.749 5.621h4.958l4.413-2.805v4.794c-4.211 0.468-7.497 4.048-7.497 8.382s3.286 7.915 7.497 8.382v5.518c-5.492-1.42-9.372-6.376-9.372-12.181v-12.091z"></path>
<path d="M12.745 19.306c0.913 0.913 2.113 1.37 3.313 1.37s2.4-0.457 3.314-1.37l-1.326-1.326c-1.096 1.096-2.88 1.096-3.976 0s-1.096-2.88 0-3.976c1.096-1.096 2.88-1.096 3.976 0l1.325-1.325c-1.827-1.827-4.8-1.827-6.627 0s-1.827 4.8 0 6.627z"></path>
</symbol>
<symbol id="icon-envelope" viewBox="0 0 32 32">
<path d="M29.333 4.889h-26.667c-0.589 0-1.155 0.234-1.571 0.651s-0.651 0.982-0.651 1.571v17.778c0 0.589 0.234 1.155 0.651 1.571s0.982 0.651 1.571 0.651h26.667c0.589 0 1.155-0.234 1.571-0.651s0.651-0.982 0.651-1.571v-17.778c0-0.589-0.234-1.155-0.651-1.571s-0.982-0.651-1.571-0.651zM26.889 7.111l-10.889 7.533-10.889-7.533h21.778zM2.667 24.889v-16.767l12.7 8.789c0.186 0.129 0.407 0.198 0.633 0.198s0.447-0.069 0.633-0.198l12.7-8.789v16.767h-26.667z"></path>
</symbol>
<symbol id="icon-facebook" viewBox="0 0 32 32">
<path d="M17.806 27.632v-10.597h3.575l0.531-4.149h-4.106v-2.643c0-1.197 0.334-2.017 2.052-2.017h2.177v-3.699c-1.059-0.114-2.124-0.168-3.19-0.164-3.16 0-5.329 1.929-5.329 5.47v3.045h-3.552v4.149h3.559v10.605h4.282z"></path>
</symbol>
<symbol id="icon-global" viewBox="0 0 32 32">
<path d="M27.314 4.686c-3.022-3.022-7.040-4.686-11.314-4.686s-8.292 1.664-11.314 4.686-4.686 7.040-4.686 11.314c0 4.274 1.664 8.292 4.686 11.314s7.040 4.686 11.314 4.686c4.274 0 8.292-1.664 11.314-4.686s4.686-7.040 4.686-11.314c0-4.274-1.664-8.292-4.686-11.314zM22.352 11.848c1.457 0.262 2.798 0.615 3.971 1.053 2.381 0.889 3.802 2.048 3.802 3.099s-1.421 2.21-3.802 3.099c-1.172 0.438-2.514 0.791-3.971 1.053 0.139-1.337 0.211-2.73 0.211-4.152s-0.072-2.815-0.211-4.152zM25.988 6.012c1.82 1.82 3.082 4.050 3.7 6.481-0.738-0.498-1.645-0.951-2.709-1.349-1.431-0.534-3.086-0.952-4.883-1.24-0.289-1.797-0.706-3.452-1.24-4.883-0.397-1.065-0.851-1.971-1.349-2.709 2.431 0.618 4.661 1.88 6.481 3.7zM20.688 16c0 1.53-0.087 3.021-0.253 4.435-1.414 0.166-2.905 0.253-4.435 0.253s-3.021-0.087-4.435-0.253c-0.166-1.414-0.253-2.905-0.253-4.435s0.087-3.021 0.253-4.435c1.414-0.166 2.905-0.253 4.435-0.253s3.021 0.087 4.435 0.253c0.166 1.414 0.253 2.905 0.253 4.435zM16 1.875c1.052 0 2.21 1.421 3.099 3.802 0.438 1.172 0.791 2.514 1.053 3.971-1.337-0.139-2.731-0.21-4.152-0.21s-2.815 0.072-4.152 0.21c0.261-1.457 0.615-2.798 1.053-3.971 0.889-2.381 2.048-3.802 3.099-3.802zM6.012 6.012c1.82-1.82 4.050-3.082 6.481-3.7-0.498 0.739-0.951 1.645-1.349 2.709-0.534 1.431-0.952 3.086-1.24 4.883-1.797 0.288-3.452 0.706-4.883 1.24-1.065 0.398-1.971 0.851-2.709 1.349 0.618-2.431 1.88-4.661 3.7-6.481zM5.677 12.901c1.172-0.438 2.514-0.791 3.971-1.053-0.139 1.337-0.21 2.73-0.21 4.152s0.072 2.815 0.21 4.152c-1.457-0.261-2.798-0.615-3.971-1.053-2.381-0.889-3.802-2.048-3.802-3.099s1.421-2.21 3.802-3.099zM6.012 25.988c-1.82-1.82-3.082-4.050-3.7-6.481 0.739 0.498 1.645 0.951 2.709 1.349 1.431 0.534 3.086 0.952 4.883 1.24 0.288 1.797 0.706 3.452 1.24 4.883 0.398 1.065 0.851 1.971 1.349 2.709-2.431-0.618-4.661-1.88-6.481-3.7zM16 30.125c-1.052 0-2.21-1.421-3.099-3.802-0.438-1.172-0.791-2.514-1.053-3.971 1.337 0.139 2.73 0.211 4.152 0.211s2.815-0.072 4.152-0.211c-0.262 1.457-0.615 2.798-1.053 3.971-0.889 2.381-2.048 3.802-3.099 3.802zM25.988 25.988c-1.82 1.82-4.050 3.082-6.481 3.7 0.498-0.738 0.951-1.645 1.349-2.709 0.534-1.431 0.952-3.086 1.24-4.883 1.797-0.288 3.452-0.706 4.883-1.24 1.065-0.398 1.971-0.851 2.709-1.349-0.618 2.431-1.88 4.661-3.7 6.481z"></path>
</symbol>
<symbol id="icon-greater-than" viewBox="0 0 32 32">
<path d="M23.807 16c0.001 0.498-0.173 0.982-0.491 1.365l-10.667 12.8c-0.362 0.436-0.882 0.71-1.447 0.762s-1.126-0.122-1.561-0.484c-0.436-0.362-0.71-0.882-0.762-1.447s0.122-1.126 0.484-1.561l9.557-11.435-9.216-11.435c-0.177-0.218-0.31-0.469-0.389-0.739s-0.106-0.552-0.076-0.832 0.114-0.55 0.249-0.797c0.135-0.247 0.317-0.464 0.536-0.64 0.219-0.195 0.477-0.343 0.756-0.435s0.574-0.124 0.867-0.096 0.576 0.116 0.833 0.259c0.257 0.143 0.481 0.337 0.659 0.57l10.304 12.8c0.268 0.395 0.395 0.868 0.363 1.344z"></path>
</symbol>
<symbol id="icon-heart" viewBox="0 0 32 32">
<path d="M16 29.838c-0.162 0-0.324-0.042-0.469-0.125-0.158-0.091-3.899-2.263-7.695-5.537-2.25-1.94-4.045-3.865-5.337-5.72-1.672-2.4-2.512-4.709-2.499-6.863 0.016-2.506 0.913-4.862 2.527-6.635 1.641-1.803 3.831-2.796 6.167-2.796 2.994 0 5.73 1.677 7.306 4.333 1.575-2.656 4.312-4.333 7.306-4.333 2.207 0 4.312 0.896 5.929 2.523 1.774 1.785 2.782 4.308 2.766 6.92-0.014 2.15-0.87 4.455-2.546 6.852-1.296 1.854-3.089 3.777-5.33 5.717-3.782 3.273-7.497 5.446-7.653 5.537-0.146 0.085-0.309 0.127-0.471 0.127z"></path>
</symbol>
<symbol id="icon-instagram-alt" viewBox="0 0 32 32">
<path d="M27.568 11.222c-0.013-0.979-0.196-1.949-0.542-2.865-0.299-0.773-0.757-1.475-1.343-2.061s-1.288-1.044-2.061-1.343c-0.905-0.34-1.86-0.523-2.826-0.543-1.244-0.056-1.638-0.071-4.796-0.071s-3.562 0-4.797 0.071c-0.966 0.020-1.921 0.204-2.825 0.543-0.773 0.299-1.475 0.757-2.061 1.343s-1.044 1.288-1.343 2.061c-0.34 0.904-0.523 1.859-0.542 2.825-0.056 1.245-0.072 1.639-0.072 4.797s0 3.561 0.072 4.797c0.019 0.967 0.202 1.921 0.542 2.828 0.3 0.773 0.758 1.475 1.344 2.061s1.289 1.043 2.062 1.342c0.902 0.353 1.857 0.55 2.825 0.582 1.245 0.056 1.639 0.072 4.797 0.072s3.562 0 4.797-0.072c0.966-0.019 1.922-0.202 2.826-0.542 0.773-0.3 1.475-0.758 2.061-1.344s1.044-1.288 1.344-2.061c0.34-0.905 0.522-1.859 0.542-2.828 0.056-1.244 0.072-1.638 0.072-4.797-0.002-3.157-0.002-3.558-0.075-4.795zM15.992 21.95c-3.302 0-5.977-2.675-5.977-5.977s2.675-5.977 5.977-5.977c1.585 0 3.106 0.63 4.226 1.751s1.751 2.641 1.751 4.226c0 1.585-0.63 3.106-1.751 4.227s-2.641 1.751-4.226 1.751zM22.208 11.168c-0.183 0-0.364-0.036-0.534-0.106s-0.323-0.173-0.452-0.302c-0.129-0.129-0.232-0.283-0.302-0.452s-0.106-0.351-0.106-0.534c0-0.183 0.036-0.364 0.106-0.533s0.173-0.323 0.302-0.452c0.129-0.129 0.283-0.232 0.452-0.302s0.35-0.106 0.533-0.106c0.183 0 0.364 0.036 0.533 0.106s0.323 0.173 0.452 0.302c0.129 0.129 0.232 0.283 0.302 0.452s0.106 0.35 0.106 0.533c0 0.771-0.623 1.394-1.392 1.394z"></path>
<path d="M15.992 19.855c2.144 0 3.883-1.738 3.883-3.883s-1.738-3.883-3.883-3.883c-2.144 0-3.883 1.738-3.883 3.883s1.738 3.883 3.883 3.883z"></path>
</symbol>
<symbol id="icon-lamp" viewBox="0 0 32 32">
<path d="M21.916 14.383c1.641-1.597 2.545-3.736 2.545-6.023 0-4.997-4.354-8.967-9.45-8.362-3.663 0.435-6.728 3.36-7.293 7.032-0.417 2.709 0.446 5.362 2.368 7.279 0.716 0.714 1.275 1.555 1.652 2.473h-1.315v1.872h1.872v5.006l3.743 8.277 3.743-8.277v-5.006h1.872v-1.872h-1.335c0.365-0.911 0.905-1.727 1.597-2.4zM16.038 27.396l-1.357-3.001h2.714l-1.357 3.001zM17.91 22.523h-3.743v-3.868h3.743v3.868zM20.61 13.041c-1.054 1.026-1.832 2.308-2.276 3.742h-1.36v-4.458l1.192-2.385 0.954 0.954 1.324-1.323-2.79-2.79-1.615 3.23-1.616-3.23-2.79 2.79 1.323 1.323 0.954-0.954 1.192 2.385v4.458h-1.374c-0.454-1.426-1.247-2.728-2.321-3.799-1.494-1.49-2.165-3.556-1.84-5.669 0.434-2.824 2.816-5.12 5.664-5.458 4.056-0.482 7.358 2.693 7.358 6.503 0 1.778-0.702 3.44-1.978 4.681z"></path>
<path d="M2 7.424h3.743v1.872h-3.743v-1.872z"></path>
<path d="M5.224 5.395l-2.808-1.872 1.038-1.557 2.808 1.872-1.038 1.557z"></path>
<path d="M5.224 11.325l1.038 1.557-2.808 1.872-1.038-1.558 2.808-1.872z"></path>
<path d="M26.333 7.424h3.743v1.872h-3.743v-1.872z"></path>
<path d="M29.659 3.523l-2.808 1.872-1.038-1.558 2.808-1.872 1.038 1.557z"></path>
<path d="M26.853 11.325l2.808 1.872-1.038 1.558-2.808-1.872 1.038-1.557z"></path>
</symbol>
<symbol id="icon-less-than" viewBox="0 0 32 32">
<path d="M9.067 16c-0.001-0.498 0.173-0.982 0.491-1.365l10.667-12.8c0.362-0.436 0.882-0.71 1.447-0.762s1.126 0.122 1.561 0.484c0.436 0.362 0.71 0.882 0.762 1.447s-0.122 1.126-0.484 1.561l-9.557 11.435 9.216 11.435c0.177 0.218 0.31 0.469 0.389 0.739s0.106 0.552 0.076 0.832-0.114 0.55-0.249 0.797c-0.135 0.247-0.317 0.464-0.536 0.64-0.219 0.195-0.477 0.343-0.756 0.435s-0.574 0.124-0.867 0.096-0.576-0.116-0.833-0.259c-0.257-0.143-0.481-0.337-0.66-0.57l-10.304-12.8c-0.268-0.395-0.395-0.868-0.363-1.344z"></path>
</symbol>
<symbol id="icon-like" viewBox="0 0 32 32">
<path d="M2.813 28.25h1.875v3.75h12.897l5.083-1.875h0.77v1.875h7.563v-16.875h-7.563v1.875h-2.529l-4.971-3.314v-0.87c2.954-2.494 5.625-4.667 5.625-7.821 0-2.744-1.964-4.995-4.675-4.995-1.855 0-3.035 1.062-3.738 2.070-0.703-1.009-1.883-2.070-3.738-2.070-2.738 0-4.725 1.971-4.725 4.688 0 3.225 3.027 5.814 5.625 8.063v2.374h-7.5v3.75h-1.875v5.625h1.875v3.75zM25.312 17h3.813v13.125h-3.813v-13.125zM20.341 18.875h3.096v9.375h-1.105l-5.083 1.875h-3.187v-3.75h-1.875c0-0.878 0-2.815 0-2.815 0.784 0.59 1.758 0.94 2.812 0.94h2.812v-1.875h-2.812c-1.551 0-2.812-1.262-2.812-2.813 0-0.873 0-6.425 0-7.562 0-1.222 0.784-2.265 1.875-2.652v5.091l6.279 4.186zM6.563 4.688c0-1.682 1.145-2.813 2.85-2.813 2.095 0 2.759 2.413 2.955 2.813h1.566c0.172-0.352 0.84-2.813 2.955-2.813 1.596 0 2.8 1.341 2.8 3.12 0 2.078-1.988 3.834-3.75 5.358v-2.79h-0.938c-1.982 0-3.68 1.238-4.364 2.98-2.5-2.22-4.074-3.953-4.074-5.855zM12.188 28.25v1.875c-0.681 0-4.94 0-5.625 0v-1.875h5.625zM4.688 26.375v-1.875h5.625v1.875h-5.625zM4.688 17h5.625v1.875h-5.625v-1.875zM2.813 20.75h7.5v1.875h-7.5v-1.875z"></path>
</symbol>
<symbol id="icon-magnifying" viewBox="0 0 32 32">
<path d="M30.937 29.137l-7.362-7.362c1.825-2.225 2.925-5.075 2.925-8.181 0-7.125-5.781-12.906-12.906-12.906-7.131 0-12.906 5.781-12.906 12.906s5.775 12.906 12.906 12.906c3.106 0 5.95-1.094 8.175-2.919l7.362 7.356c0.5 0.5 1.306 0.5 1.806 0 0.5-0.494 0.5-1.306 0-1.8zM13.594 23.931c-5.706 0-10.344-4.637-10.344-10.337s4.638-10.344 10.344-10.344c5.7 0 10.344 4.644 10.344 10.344s-4.644 10.337-10.344 10.337z"></path>
</symbol>
<symbol id="icon-megaphone" viewBox="0 0 32 32">
<path d="M30.125 4.073l-15.125 5.005v-1.515h-11.25v1.875h-3.75v9.375h3.75v1.875h1.875v9.375h5.456l1.875-9.375h2.044v-1.515l15.125 5.005v2.135h1.875v-24.375h-1.875v2.135zM3.75 16.938h-1.875v-5.625h1.875v5.625zM9.544 28.188h-2.044v-7.5h3.544l-1.5 7.5zM13.125 18.812h-7.5v-9.375h7.5v9.375zM30.125 22.202l-15.125-5.005v-6.145l15.125-5.004v16.155z"></path>
<path d="M7.5 11.313h3.75v1.875h-3.75v-1.875z"></path>
<path d="M7.5 15.063h3.75v1.875h-3.75v-1.875z"></path>
</symbol>
<symbol id="icon-quill-pen" viewBox="0 0 32 32">
<path d="M18.313 23.111l-3.75-3.75v-2.424h1.875v-1.875h-13.126v1.875h1.875v2.424l-3.75 3.75v8.889h16.876v-8.889zM7.063 16.937h5.625v1.875h-5.625v-1.875zM6.514 20.687h6.724l1.875 1.875h-10.474l1.875-1.875zM16.438 30.125h-13.126v-5.688h13.126v5.688z"></path>
<path d="M30.48 13.193c-0.36-4.749-2.965-9.483-3.313-9.983l-2.27-3.209-2.27 3.209c-0.69 0.989-3.355 6.179-3.355 11.099 0 5.522 3.231 9.932 3.369 10.117l1.297 1.742v5.832h1.875v-5.774l1.341-1.8c0.090-0.122 2.225-3.024 3.044-7.005l0.305-1.483-0.691-0.691 0.765-0.765-0.098-1.288zM28.463 16.548l-0.102 0.495c-0.619 3.010-2.058 5.312-2.548 6.031v-6.137h-1.875v6.073c-0.683-1.018-2.791-4.499-2.791-8.701 0-4.953 2.917-9.862 3.016-10.023l0.734-1.038 0.732 1.035c0.442 0.697 2.67 4.956 2.981 9.052l0.032 0.43-1.482 1.482 1.302 1.303z"></path>
<path d="M5.188 26.312h9.375v1.875h-9.375v-1.875z"></path>
</symbol>
<symbol id="icon-quotes" viewBox="0 0 32 32">
<path d="M31.994 9.805c0-0.003 0-0.007 0-0.010 0-4.207-3.41-7.617-7.617-7.617s-7.617 3.41-7.617 7.617c0 4.207 3.411 7.617 7.617 7.617 0.865 0 1.692-0.151 2.467-0.416-1.714 9.832-9.381 16.172-2.274 10.954 7.881-5.786 7.433-17.922 7.424-18.144z"></path>
<path d="M7.617 17.412c0.865 0 1.692-0.151 2.467-0.416-1.714 9.832-9.381 16.172-2.274 10.954 7.881-5.786 7.433-17.922 7.424-18.144 0-0.003 0-0.007 0-0.010 0-4.207-3.41-7.617-7.617-7.617s-7.617 3.41-7.617 7.617 3.411 7.617 7.617 7.617z"></path>
</symbol>
<symbol id="icon-star" viewBox="0 0 32 32">
<path d="M25.582 20.073c-0.183 0.188-0.32 0.42-0.399 0.675s-0.098 0.528-0.054 0.793l1.393 8.547c0.081 0.287 0.073 0.594-0.023 0.875s-0.274 0.524-0.51 0.692c-0.292 0.223-0.643 0.343-1.004 0.344-0.28 0.001-0.557-0.070-0.805-0.208l-7.442-4.226c-0.226-0.125-0.478-0.19-0.733-0.19s-0.507 0.065-0.733 0.19l-7.138 4.226c-0.283 0.157-0.603 0.227-0.922 0.203s-0.626-0.142-0.885-0.34c-0.27-0.146-0.494-0.372-0.643-0.651s-0.217-0.597-0.196-0.916l1.706-8.724c0.043-0.265 0.025-0.537-0.054-0.793s-0.216-0.488-0.399-0.675l-6.221-5.144c-0.23-0.235-0.392-0.533-0.469-0.86s-0.065-0.671 0.034-0.991c0.099-0.321 0.282-0.606 0.527-0.823s0.543-0.358 0.86-0.406l8.082-1.496c0.253-0.039 0.493-0.141 0.7-0.299s0.374-0.367 0.487-0.608l3.72-8.264c0.142-0.303 0.363-0.557 0.636-0.734s0.588-0.27 0.909-0.268c0.32-0 0.634 0.094 0.906 0.272s0.491 0.432 0.633 0.735l3.574 8.264c0.113 0.241 0.281 0.45 0.487 0.608s0.447 0.261 0.7 0.299l8.227 1.496c0.317 0.048 0.614 0.189 0.859 0.406s0.427 0.502 0.525 0.823c0.099 0.321 0.11 0.664 0.033 0.991s-0.239 0.625-0.468 0.861l-5.899 5.318z"></path>
</symbol>
<symbol id="icon-telegram" viewBox="0 0 32 32">
<path d="M29.497 6.461l-4.097 19.321c-0.309 1.363-1.115 1.703-2.26 1.061l-6.243-4.6-3.012 2.897c-0.334 0.334-0.612 0.612-1.255 0.612l0.449-6.357 11.569-10.454c0.503-0.448-0.11-0.697-0.782-0.248l-14.303 9.007-6.158-1.928c-1.339-0.418-1.363-1.339 0.279-1.982l24.084-9.279c1.115-0.418 2.091 0.248 1.727 1.952v-0.001z"></path>
</symbol>
<symbol id="icon-user" viewBox="0 0 32 32">
<path d="M16 18.024c-9.615 0-14.91 4.548-14.91 12.808 0 0.645 0.523 1.168 1.168 1.168h27.484c0.645 0 1.168-0.523 1.168-1.168 0-8.259-5.295-12.808-14.91-12.808zM3.468 29.664c0.459-6.176 4.67-9.304 12.532-9.304s12.072 3.129 12.532 9.304h-25.064z"></path>
<path d="M16 0c-4.416 0-7.747 3.397-7.747 7.902 0 4.637 3.475 8.409 7.747 8.409s7.747-3.772 7.747-8.408c0-4.505-3.33-7.903-7.747-7.903zM16 13.976c-2.984 0-5.411-2.724-5.411-6.073 0-3.226 2.276-5.567 5.411-5.567 3.085 0 5.411 2.393 5.411 5.567 0 3.349-2.427 6.073-5.411 6.073z"></path>
</symbol>
<symbol id="icon-vk" viewBox="0 0 32 32">
<path d="M28.385 9.348c0.181-0.601 0-1.042-0.856-1.042h-2.835c-0.721 0-1.051 0.381-1.232 0.8 0 0-1.442 3.515-3.485 5.795-0.659 0.663-0.961 0.873-1.32 0.873-0.18 0-0.441-0.209-0.441-0.811v-5.615c0-0.721-0.208-1.042-0.809-1.042h-4.455c-0.45 0-0.721 0.334-0.721 0.652 0 0.683 1.021 0.84 1.126 2.764v4.173c0 0.914-0.164 1.081-0.526 1.081-0.961 0-3.298-3.528-4.686-7.568-0.27-0.785-0.543-1.102-1.267-1.102h-2.834c-0.811 0-0.972 0.381-0.972 0.8 0 0.752 0.961 4.476 4.475 9.401 2.343 3.363 5.641 5.186 8.646 5.186 1.801 0 2.023-0.405 2.023-1.103v-2.542c0-0.809 0.172-0.972 0.742-0.972 0.419 0 1.14 0.212 2.822 1.832 1.921 1.921 2.239 2.784 3.319 2.784h2.834c0.809 0 1.214-0.405 0.981-1.204-0.255-0.795-1.173-1.952-2.391-3.322-0.662-0.781-1.651-1.621-1.952-2.041-0.42-0.542-0.299-0.781 0-1.262 0.001 0.001 3.455-4.863 3.814-6.516z"></path>
</symbol>
<symbol id="icon-writing" viewBox="0 0 32 32">
<path d="M18.229 10.798l3.975-6.874-6.378-3.924-4.786 8.112-9.064 5.401-1.976 7.903 2.007 2.006-0.772 1.309-0.561 7.268 5.866-2.774v0.824h9.372v-3.638l3.527 1.764h5.993l6.536-2.131v-10.989h-4.603l-9.135-4.257zM16.47 2.597l3.198 1.968-1.12 1.936-3.301-1.833 1.222-2.071zM14.295 6.282l3.315 1.842-4.071 7.041-0.557-0.279-7.126 5.701 8.44-14.305zM3.605 14.724l5.449-3.247-6.064 10.279-0.915-0.914 1.53-6.117zM6.257 27.286l-3.466 1.639 0.279-3.616 0.323-0.548 0.106-0.106c0.916 0.929 2.090 1.503 3.325 1.687l-0.567 0.943zM10.288 28.175h-1.874v-0.839l0.657-1.092c0.415-0.1 0.823-0.246 1.217-0.44v2.371zM14.036 28.175h-1.874v-3.559l0.067-0.045 1.807 0.903v2.701zM30.093 24.684l-4.96 1.617h-5.253l-7.786-3.893-2.177 1.451c-1.514 1.009-3.478 0.858-4.815-0.269l8.114-6.491 6.961 3.48 0.838-1.676-5.797-2.898 2.069-3.578 9.662 4.503h3.144v7.754z"></path>
</symbol>
<symbol id="icon-youtube" viewBox="0 0 32 32">
<path d="M12.697 20.35l8.643-4.688-8.643-4.744v9.431zM16 4.188c2 0 3.932 0.028 5.795 0.084s3.229 0.116 4.098 0.178l1.303 0.075c0.012 0 0.113 0.009 0.304 0.028s0.327 0.037 0.411 0.056c0.083 0.019 0.223 0.047 0.42 0.084s0.366 0.088 0.509 0.15c0.143 0.063 0.309 0.144 0.5 0.244s0.375 0.222 0.553 0.366c0.179 0.144 0.351 0.309 0.518 0.497 0.071 0.075 0.164 0.191 0.277 0.347s0.286 0.522 0.518 1.097c0.232 0.575 0.39 1.206 0.473 1.894 0.095 0.8 0.17 1.653 0.223 2.559s0.086 1.616 0.098 2.128v3.3c0.012 1.813-0.095 3.625-0.322 5.438-0.083 0.688-0.232 1.309-0.446 1.866s-0.405 0.941-0.571 1.153l-0.25 0.319c-0.167 0.188-0.339 0.353-0.518 0.497s-0.363 0.262-0.553 0.356c-0.191 0.094-0.357 0.172-0.5 0.234s-0.313 0.113-0.509 0.15c-0.196 0.038-0.339 0.066-0.428 0.084s-0.226 0.038-0.411 0.056c-0.185 0.019-0.283 0.028-0.295 0.028-2.988 0.238-6.72 0.356-11.196 0.356-2.464-0.025-4.604-0.066-6.42-0.122s-3.009-0.103-3.58-0.141l-0.875-0.075-0.643-0.075c-0.429-0.063-0.753-0.125-0.973-0.188s-0.524-0.194-0.911-0.394c-0.387-0.2-0.723-0.456-1.009-0.769-0.071-0.075-0.164-0.191-0.277-0.347s-0.286-0.522-0.518-1.097c-0.232-0.575-0.39-1.206-0.473-1.894-0.095-0.8-0.17-1.653-0.223-2.559s-0.086-1.616-0.098-2.128v-3.3c-0.012-1.813 0.095-3.625 0.321-5.438 0.083-0.688 0.232-1.309 0.446-1.866s0.405-0.941 0.571-1.153l0.25-0.319c0.167-0.188 0.339-0.353 0.518-0.497s0.363-0.266 0.554-0.366c0.19-0.1 0.357-0.181 0.5-0.244s0.313-0.112 0.509-0.15c0.196-0.037 0.336-0.066 0.42-0.084s0.22-0.037 0.411-0.056c0.19-0.019 0.292-0.028 0.304-0.028 2.988-0.225 6.72-0.338 11.196-0.338z"></path>
</symbol>
<symbol id="icon-cross1" viewBox="0 0 32 32">
<path d="M25.136 8.602c0.114-0.114 0.204-0.249 0.266-0.398s0.094-0.308 0.094-0.47c0-0.161-0.032-0.321-0.093-0.47s-0.152-0.284-0.266-0.398c-0.114-0.114-0.249-0.205-0.398-0.266s-0.308-0.094-0.47-0.094c-0.161-0-0.321 0.032-0.47 0.093s-0.284 0.152-0.398 0.266l-7.401 7.401-7.398-7.401c-0.23-0.23-0.543-0.36-0.868-0.36s-0.638 0.129-0.868 0.36c-0.23 0.23-0.36 0.543-0.36 0.868s0.129 0.638 0.36 0.868l7.401 7.398-7.401 7.398c-0.114 0.114-0.204 0.249-0.266 0.398s-0.093 0.309-0.093 0.47c0 0.161 0.032 0.321 0.093 0.47s0.152 0.284 0.266 0.398c0.23 0.23 0.543 0.36 0.868 0.36 0.161 0 0.321-0.032 0.47-0.093s0.284-0.152 0.398-0.266l7.398-7.4 7.401 7.4c0.23 0.23 0.542 0.359 0.868 0.359s0.638-0.13 0.868-0.36c0.23-0.23 0.359-0.543 0.359-0.868s-0.13-0.637-0.36-0.868l-7.401-7.398 7.401-7.398z"></path>
</symbol>
<symbol id="icon-menu-mobile" viewBox="0 0 32 32">
<path d="M4 24h24M4 8h24H4Zm0 8h24H4Z" stroke="#fff" stroke-width="2" stroke-linecap="round" stroke-linejoin="round"/>
</symbol>
</defs>
</svg>
