<svg width="28" height="28" viewBox="0 0 28 28" fill="none" xmlns="http://www.w3.org/2000/svg">
<path d="M24.6434 8.28325C24.7989 7.76658 24.6434 7.3877 23.9078 7.3877H21.4711C20.8511 7.3877 20.5678 7.71547 20.4123 8.07547C20.4123 8.07547 19.1734 11.0966 17.4178 13.0555C16.8511 13.6255 16.5923 13.8055 16.2834 13.8055C16.1289 13.8055 15.9045 13.6255 15.9045 13.1088V8.28325C15.9045 7.66325 15.7256 7.3877 15.2089 7.3877H11.38C10.9934 7.3877 10.76 7.67436 10.76 7.9477C10.76 8.53436 11.6378 8.66992 11.7278 10.3233V13.9099C11.7278 14.6955 11.5867 14.8388 11.2756 14.8388C10.45 14.8388 8.44114 11.8066 7.24892 8.33547C7.01669 7.66103 6.78225 7.38881 6.16003 7.38881H3.72447C3.02781 7.38881 2.88892 7.71658 2.88892 8.07658C2.88892 8.72325 3.71447 11.9233 6.73447 16.1555C8.74781 19.0455 11.5822 20.6121 14.1645 20.6121C15.7122 20.6121 15.9034 20.2644 15.9034 19.6644V17.4799C15.9034 16.7844 16.0511 16.6444 16.5411 16.6444C16.9011 16.6444 17.5211 16.8266 18.9667 18.2188C20.6178 19.8699 20.8911 20.611 21.8189 20.611H24.2545C24.95 20.611 25.2978 20.2633 25.0978 19.5766C24.8789 18.8933 24.09 17.8988 23.0434 16.7221C22.4745 16.051 21.6245 15.3288 21.3656 14.9677C21.0045 14.5021 21.1089 14.2966 21.3656 13.8833C21.3667 13.8844 24.3345 9.70436 24.6434 8.28325V8.28325Z" fill="white"/>
</svg>
