<svg width="32" height="24" viewBox="0 0 32 24" fill="none" xmlns="http://www.w3.org/2000/svg">
<g clip-path="url(#clip0_128_2647)">
<path d="M12.6966 16.35L21.3394 11.6625L12.6966 6.91875V16.35ZM16.0001 0.1875C18.0001 0.1875 19.9317 0.215625 21.7947 0.271875C23.6578 0.328125 25.0239 0.3875 25.893 0.45L27.1965 0.525C27.2084 0.525 27.3096 0.534375 27.5001 0.553125C27.6906 0.571875 27.8275 0.590625 27.9108 0.609375C27.9941 0.628125 28.134 0.65625 28.3304 0.69375C28.5269 0.73125 28.6965 0.78125 28.8394 0.84375C28.9822 0.90625 29.1489 0.9875 29.3394 1.0875C29.5298 1.1875 29.7144 1.30938 29.8929 1.45312C30.0715 1.59688 30.2441 1.7625 30.4108 1.95C30.4822 2.025 30.5745 2.14063 30.6876 2.29688C30.8007 2.45312 30.9733 2.81875 31.2054 3.39375C31.4376 3.96875 31.5953 4.6 31.6786 5.2875C31.7739 6.0875 31.8483 6.94063 31.9019 7.84688C31.9554 8.75313 31.9882 9.4625 32.0001 9.975V13.275C32.012 15.0875 31.9048 16.9 31.6786 18.7125C31.5953 19.4 31.4465 20.0219 31.2322 20.5781C31.0179 21.1344 30.8275 21.5188 30.6608 21.7313L30.4108 22.05C30.2441 22.2375 30.0715 22.4031 29.8929 22.5469C29.7144 22.6906 29.5298 22.8094 29.3394 22.9031C29.1489 22.9969 28.9822 23.075 28.8394 23.1375C28.6965 23.2 28.5269 23.25 28.3304 23.2875C28.134 23.325 27.9912 23.3531 27.9019 23.3719C27.8126 23.3906 27.6757 23.4094 27.4912 23.4281C27.3066 23.4469 27.2084 23.4563 27.1965 23.4563C24.2084 23.6938 20.4763 23.8125 16.0001 23.8125C13.5358 23.7875 11.396 23.7469 9.58049 23.6906C7.76502 23.6344 6.57157 23.5875 6.00014 23.55L5.12515 23.475L4.48229 23.4C4.05372 23.3375 3.72932 23.275 3.50908 23.2125C3.28884 23.15 2.98527 23.0188 2.59837 22.8188C2.21146 22.6188 1.87516 22.3625 1.58944 22.05C1.51801 21.975 1.42575 21.8594 1.31266 21.7031C1.19956 21.5469 1.02694 21.1813 0.794801 20.6063C0.562659 20.0312 0.404921 19.4 0.321588 18.7125C0.22635 17.9125 0.151946 17.0594 0.0983745 16.1531C0.0448032 15.2469 0.0120652 14.5375 0.000160433 14.025V10.725C-0.0117443 8.9125 0.0953983 7.1 0.321588 5.2875C0.404921 4.6 0.55373 3.97813 0.768016 3.42188C0.982301 2.86563 1.17278 2.48125 1.33944 2.26875L1.58944 1.95C1.75611 1.7625 1.92873 1.59688 2.1073 1.45312C2.28587 1.30938 2.47039 1.1875 2.66087 1.0875C2.85134 0.9875 3.01801 0.90625 3.16087 0.84375C3.30372 0.78125 3.47337 0.73125 3.66979 0.69375C3.86622 0.65625 4.0061 0.628125 4.08944 0.609375C4.17277 0.590625 4.30967 0.571875 4.50015 0.553125C4.69062 0.534375 4.79181 0.525 4.80372 0.525C7.79181 0.3 11.5239 0.1875 16.0001 0.1875Z" fill="white"/>
</g>
<defs>
<clipPath id="clip0_128_2647">
<rect width="32" height="24" fill="white"/>
</clipPath>
</defs>
</svg>
